<svg width="120px" height="40px" viewBox="0 0 120 40" version="1.1" xmlns="http://www.w3.org/2000/svg" xmlns:xlink="http://www.w3.org/1999/xlink">
<desc>Created with Sketch.</desc>
<defs></defs>
<g id="Homepage-(Masami)" stroke="none" stroke-width="1" fill="none" fill-rule="evenodd">
<g id="HP-V3" transform="translate(-101.000000, -7604.000000)" fill-rule="nonzero" fill="#FFFFFF">
<g id="Footer" transform="translate(-20.000000, 7313.000000)">
<g id="Footer-content" transform="translate(120.000000, 90.000000)">
<g id="Group-24" transform="translate(-0.000000, 0.000000)">
<g id="Group-19">
<g id="app_store_badge" transform="translate(1.000000, 201.000000)">
<path d="M59.3208431,21.8969555 C58.0562061,21.8969555 56.9555035,22.7868852 56.6276347,24.0749415 C56.6276347,24.1451991 56.6042155,24.1920375 56.6042155,24.2622951 C56.557377,24.4496487 56.5339578,24.6604215 56.5339578,24.824356 L56.5339578,26.6276347 C56.5339578,26.9086651 56.557377,27.1662763 56.6042155,27.35363 C56.9086651,28.5714286 57.9859485,29.4379391 59.2505855,29.4379391 C61.0772834,29.4379391 62.2248244,27.9625293 62.2248244,25.6206089 C62.2014052,23.7470726 61.3114754,21.8969555 59.3208431,21.8969555 Z" id="Shape"></path>
<circle id="Oval" cx="15.8079625" cy="29.5784543" r="1.40515222"></circle>
<path d="M64.9648712,8.71194379 C64.0983607,8.71194379 63.7002342,9.53161593 63.7002342,10.3044496 C63.7002342,11.1943794 64.2154567,11.8735363 64.9180328,11.8735363 L64.9180328,11.8735363 C65.6206089,11.8735363 66.1592506,11.1943794 66.1592506,10.2810304 C66.1826698,9.57845433 65.8313817,8.71194379 64.9648712,8.71194379 Z" id="Shape"></path>
<path d="M32.1077283,8.33723653 C31.9906323,7.96252927 31.8969555,7.63466042 31.8266979,7.30679157 L31.8032787,7.30679157 C31.7330211,7.63466042 31.6393443,7.98594848 31.5222482,8.33723653 L30.9601874,10 L32.6697892,10 L32.1077283,8.33723653 Z" id="Shape"></path>
<path d="M47.7985948,21.8969555 C46.5339578,21.8969555 45.4332553,22.7868852 45.1053864,24.0749415 C45.1053864,24.1451991 45.0819672,24.1920375 45.0819672,24.2622951 C45.058548,24.4496487 45.0117096,24.6604215 45.0117096,24.824356 L45.0117096,26.6276347 C45.0117096,26.9086651 45.0351288,27.1662763 45.0819672,27.35363 C45.3864169,28.5714286 46.4637002,29.4379391 47.7283372,29.4379391 C49.5550351,29.4379391 50.7025761,27.9625293 50.7025761,25.6206089 C50.6791569,23.7470726 49.7892272,21.8969555 47.7985948,21.8969555 Z" id="Shape"></path>
<path d="M52.4824356,8.735363 C51.9672131,8.735363 51.498829,9.08665105 51.3583138,9.64871194 C51.3348946,9.74238876 51.3114754,9.83606557 51.3114754,9.95316159 L51.3114754,10.6791569 L51.3114754,10.6791569 C51.3114754,10.7728337 51.3114754,10.8665105 51.3348946,10.9601874 C51.4754098,11.4754098 51.9203747,11.8266979 52.4590164,11.8266979 C53.2552693,11.8266979 53.7002342,11.1943794 53.7002342,10.2576112 C53.7002342,9.43793911 53.2786885,8.735363 52.4824356,8.735363 Z" id="Shape"></path>
<path d="M100.351288,11.8735363 L100.351288,11.8735363 C101.077283,11.8735363 101.615925,11.1943794 101.615925,10.2810304 C101.615925,9.57845433 101.264637,8.71194379 100.398126,8.71194379 C99.5316159,8.71194379 99.1334895,9.53161593 99.1334895,10.3044496 C99.1334895,11.2177986 99.6252927,11.8735363 100.351288,11.8735363 Z" id="Shape"></path>
<rect id="Rectangle-path" x="10.4683841" y="11.5456674" width="10.6557377" height="15.9484778"></rect>
<path d="M109.508197,8.68852459 C108.735363,8.68852459 108.430913,9.3911007 108.360656,9.90632319 L110.538642,9.90632319 C110.538642,9.43793911 110.351288,8.68852459 109.508197,8.68852459 Z" id="Shape"></path>
<path d="M107.259953,21.7330211 C105.59719,21.7330211 104.777518,23.1615925 104.566745,24.4496487 L109.672131,24.4496487 C109.648712,23.9812646 109.555035,23.0210773 108.899297,22.3653396 C108.477752,21.9437939 107.93911,21.7330211 107.259953,21.7330211 Z" id="Shape"></path>
<path d="M46.9555035,11.1709602 C46.9555035,11.6627635 47.2833724,11.8735363 47.6580796,11.8735363 C48.1967213,11.8735363 48.5480094,11.5456674 48.6651054,11.1943794 C48.6885246,11.1241218 48.6885246,11.030445 48.6885246,10.9601874 L48.6885246,10.2576112 C47.8688525,10.234192 46.9555035,10.3747073 46.9555035,11.1709602 Z" id="Shape"></path>
<path d="M58.8758782,8.68852459 C58.1030445,8.68852459 57.7985948,9.3911007 57.7283372,9.90632319 L59.9063232,9.90632319 C59.9063232,9.43793911 59.6955504,8.68852459 58.8758782,8.68852459 Z" id="Shape"></path>
<path d="M90.9601874,9.53161593 C91.8501171,9.53161593 92.3887588,9.08665105 92.3887588,8.31381733 C92.3887588,7.54098361 91.8501171,7.18969555 91.030445,7.18969555 C90.7025761,7.18969555 90.4683841,7.21311475 90.3278689,7.25995316 L90.3278689,9.48477752 L90.3278689,9.48477752 C90.5152225,9.50819672 90.7259953,9.53161593 90.9601874,9.53161593 Z" id="Shape"></path>
<path d="M119.789227,33.8875878 L119.789227,5.29274005 C119.789227,2.36533958 117.423888,0 114.496487,0 L5.29274005,0 C2.36533958,0 0,2.36533958 0,5.29274005 L0,33.8875878 C0,36.8149883 2.36533958,39.1803279 5.29274005,39.1803279 L114.496487,39.1803279 C117.423888,39.1803279 119.789227,36.8149883 119.789227,33.8875878 L119.789227,33.8875878 Z M109.578454,8.1498829 C110.913349,8.1498829 111.264637,9.32084309 111.264637,10.0702576 C111.264637,10.234192 111.264637,10.3512881 111.241218,10.4215457 L108.360656,10.4215457 C108.384075,11.4285714 109.016393,11.8501171 109.765808,11.8501171 C110.30445,11.8501171 110.632319,11.7564403 110.88993,11.6393443 L111.030445,12.1545667 C110.772834,12.2716628 110.30445,12.412178 109.648712,12.412178 C108.384075,12.412178 107.63466,11.5690867 107.63466,10.3512881 C107.63466,9.11007026 108.384075,8.1498829 109.578454,8.1498829 Z M103.911007,8.24355972 L103.957845,8.92271663 L103.981265,8.92271663 C104.192037,8.54800937 104.660422,8.1498829 105.339578,8.1498829 C105.901639,8.1498829 106.791569,8.47775176 106.791569,9.90632319 L106.791569,12.3653396 L106.042155,12.3653396 L106.042155,9.9765808 C106.042155,9.32084309 105.784543,8.7587822 105.081967,8.7587822 C104.590164,8.7587822 104.215457,9.11007026 104.074941,9.53161593 C104.051522,9.62529274 104.028103,9.76580796 104.028103,9.88290398 L104.028103,12.3653396 L103.278689,12.3653396 L103.278689,9.3676815 L103.278689,9.3676815 C103.278689,8.94613583 103.278689,8.59484778 103.255269,8.26697892 L103.911007,8.26697892 L103.911007,8.24355972 Z M100.398126,8.1498829 C101.569087,8.1498829 102.36534,9.01639344 102.36534,10.2576112 C102.36534,11.7798595 101.311475,12.4355972 100.327869,12.4355972 L100.327869,12.4355972 C99.2271663,12.4355972 98.3606557,11.6159251 98.3606557,10.3278689 C98.3606557,8.96955504 99.2740047,8.1498829 100.398126,8.1498829 Z M91.030445,6.60421546 C91.7564403,6.60421546 92.295082,6.76814988 92.6229508,7.07259953 C92.9274005,7.35362998 93.1381733,7.75175644 93.1381733,8.26697892 C93.1381733,8.78220141 92.9742389,9.18032787 92.6932084,9.48477752 C92.295082,9.90632319 91.6627635,10.117096 90.9367681,10.117096 C90.7259953,10.117096 90.5152225,10.117096 90.3512881,10.0702576 L90.3512881,12.3653396 L89.6252927,12.3653396 L89.6252927,6.72131148 L89.6252927,6.72131148 C89.9765808,6.65105386 90.4215457,6.60421546 91.030445,6.60421546 Z M88.0093677,6.53395785 C88.2903981,6.53395785 88.4777518,6.74473068 88.4777518,7.00234192 C88.4777518,7.25995316 88.2903981,7.4941452 87.9859485,7.4941452 L87.9859485,7.4941452 C87.704918,7.4941452 87.5175644,7.28337237 87.5175644,7.00234192 C87.5409836,6.74473068 87.7283372,6.53395785 88.0093677,6.53395785 Z M88.3840749,8.24355972 L88.3840749,12.3419204 L87.6346604,12.3419204 L87.6346604,12.3419204 L87.6346604,8.24355972 L88.3840749,8.24355972 Z M77.0257611,6.32318501 L77.0257611,6.32318501 L77.7751756,6.32318501 L77.7751756,8.89929742 L77.7985948,8.89929742 C77.9156909,8.68852459 78.1030445,8.50117096 78.3372365,8.38407494 C78.5480094,8.24355972 78.8290398,8.17330211 79.1100703,8.17330211 C79.6721311,8.17330211 80.5386417,8.50117096 80.5386417,9.92974239 L80.5386417,12.3653396 L79.7892272,12.3653396 L79.7892272,10 C79.7892272,9.32084309 79.5316159,8.78220141 78.8290398,8.78220141 C78.3372365,8.78220141 77.9625293,9.11007026 77.8220141,9.53161593 C77.7751756,9.62529274 77.7751756,9.74238876 77.7751756,9.88290398 L77.7751756,12.3653396 L77.0257611,12.3653396 L77.0257611,6.32318501 L77.0257611,6.32318501 Z M73.793911,8.24355972 L74.4262295,8.24355972 L74.4262295,7.4941452 L75.1522248,7.25995316 L75.1522248,8.24355972 L76.2295082,8.24355972 L76.2295082,8.80562061 L75.175644,8.80562061 L75.175644,11.0070258 C75.175644,11.5222482 75.3161593,11.8032787 75.7377049,11.8032787 C75.9484778,11.8032787 76.0655738,11.7798595 76.1826698,11.7564403 L76.206089,12.3185012 C76.0655738,12.3653396 75.8313817,12.412178 75.5503513,12.412178 C75.1990632,12.412178 74.9180328,12.295082 74.7540984,12.1077283 C74.5433255,11.8735363 74.4730679,11.5222482 74.4730679,11.030445 L74.4730679,8.78220141 L73.8407494,8.78220141 L73.8407494,8.24355972 L73.793911,8.24355972 Z M58.9227166,8.1498829 C60.2576112,8.1498829 60.6088993,9.32084309 60.6088993,10.0702576 C60.6088993,10.234192 60.6088993,10.3512881 60.5854801,10.4215457 L57.704918,10.4215457 C57.7283372,11.4285714 58.3606557,11.8501171 59.1100703,11.8501171 C59.6487119,11.8501171 59.9765808,11.7564403 60.234192,11.6393443 L60.3747073,12.1545667 C60.117096,12.2716628 59.6487119,12.412178 58.9929742,12.412178 C57.7283372,12.412178 56.9789227,11.5690867 56.9789227,10.3512881 C57.0023419,9.11007026 57.7283372,8.1498829 58.9227166,8.1498829 Z M55.3395785,6.32318501 L56.088993,6.32318501 L56.088993,12.3419204 L55.3395785,12.3419204 L55.3395785,6.32318501 Z M47.7517564,8.71194379 C47.35363,8.71194379 46.9555035,8.82903981 46.6744731,9.01639344 L46.5105386,8.52459016 C46.8384075,8.31381733 47.35363,8.17330211 47.8688525,8.17330211 C49.1334895,8.17330211 49.4379391,9.03981265 49.4379391,9.85948478 L49.4379391,11.381733 L49.4379391,11.381733 C49.4379391,11.7330211 49.4613583,12.0843091 49.5081967,12.3653396 L48.8290398,12.3653396 L48.7587822,11.8501171 L48.7119438,11.8501171 C48.501171,12.1779859 48.0327869,12.4590164 47.4473068,12.4590164 C46.6276347,12.4590164 46.1826698,11.8735363 46.1826698,11.2880562 C46.1826698,10.3044496 47.0725995,9.76580796 48.6416862,9.76580796 L48.6416862,9.67213115 C48.6651054,9.32084309 48.5714286,8.68852459 47.7517564,8.71194379 Z M44.5901639,6.32318501 L45.3395785,6.32318501 L45.3395785,12.3419204 L44.5901639,12.3419204 L44.5901639,6.32318501 Z M39.8126464,8.71194379 C39.4145199,8.71194379 39.0163934,8.82903981 38.735363,9.01639344 L38.5714286,8.52459016 C38.8992974,8.31381733 39.4145199,8.17330211 39.9297424,8.17330211 C41.1943794,8.17330211 41.498829,9.03981265 41.498829,9.85948478 L41.498829,11.381733 C41.498829,11.7330211 41.5222482,12.0843091 41.5690867,12.3653396 L40.8899297,12.3653396 L40.8196721,11.8501171 L40.7962529,11.8501171 C40.5854801,12.1779859 40.117096,12.4590164 39.5316159,12.4590164 C38.7119438,12.4590164 38.2669789,11.8735363 38.2669789,11.2880562 C38.2669789,10.3044496 39.1569087,9.76580796 40.7259953,9.76580796 L40.7259953,9.67213115 C40.7494145,9.32084309 40.6557377,8.68852459 39.8126464,8.71194379 Z M34.9882904,8.24355972 L35.7845433,10.5386417 C35.9250585,10.9133489 36.0421546,11.264637 36.1124122,11.5925059 L36.1358314,11.5925059 C36.2295082,11.264637 36.3466042,10.9133489 36.4871194,10.5386417 L37.2833724,8.24355972 L38.0562061,8.24355972 L36.440281,12.3419204 L35.7377049,12.3419204 L34.1920375,8.24355972 L34.9882904,8.24355972 Z M31.381733,6.62763466 L32.2716628,6.62763466 L34.2154567,12.3419204 L33.4192037,12.3419204 L32.8103044,10.5386417 L30.7962529,10.5386417 L30.7962529,10.5386417 L30.2107728,12.3419204 L29.4379391,12.3419204 L31.381733,6.62763466 Z M22.8103044,30.4449649 C22.8103044,31.6159251 21.8735363,32.5526932 20.7025761,32.5526932 L10.9367681,32.5526932 C9.76580796,32.5526932 8.82903981,31.6159251 8.82903981,30.4449649 L8.82903981,8.82903981 C8.82903981,7.65807963 9.76580796,6.72131148 10.9367681,6.72131148 L20.7025761,6.72131148 C21.8735363,6.72131148 22.8103044,7.65807963 22.8103044,8.82903981 L22.8103044,30.4449649 Z M39.4847775,31.0070258 L37.9391101,26.4637002 L33.0679157,26.4637002 L31.5690867,31.0070258 L29.2740047,31.0070258 L34.3091335,16.2295082 L36.8149883,16.2295082 L41.8501171,31.0070258 L39.4847775,31.0070258 Z M43.0210773,6.53395785 C43.3021077,6.53395785 43.4894614,6.74473068 43.4894614,7.00234192 C43.4894614,7.25995316 43.3021077,7.4941452 42.9976581,7.4941452 L42.9976581,7.4941452 C42.7166276,7.4941452 42.529274,7.28337237 42.529274,7.00234192 C42.529274,6.74473068 42.7400468,6.53395785 43.0210773,6.53395785 Z M42.64637,12.3419204 L42.64637,8.24355972 L43.3957845,8.24355972 L43.3957845,12.3419204 L42.64637,12.3419204 L42.64637,12.3419204 Z M51.4519906,29.7892272 C50.5854801,30.7259953 49.3676815,31.2412178 48.0562061,31.2412178 C46.7915691,31.2412178 45.6908665,30.7494145 44.9882904,29.9297424 L44.9882904,35.2459016 L42.7400468,35.2459016 L42.7400468,23.8407494 C42.7400468,22.3887588 42.7166276,21.381733 42.64637,20.4683841 L42.6229508,20.2810304 L44.6604215,20.2810304 L44.7540984,21.7564403 C45.5737705,20.6323185 46.7915691,20.0468384 48.3138173,20.0468384 C49.6018735,20.0468384 50.7728337,20.5854801 51.5925059,21.5690867 C52.4355972,22.5761124 52.9039813,23.9344262 52.9039813,25.5035129 C52.9508197,27.2833724 52.4355972,28.7587822 51.4519906,29.7892272 Z M52.6229508,12.4355972 C52.0374707,12.4355972 51.5690867,12.2014052 51.2412178,11.6627635 L51.2177986,11.6627635 L51.1709602,12.3419204 L50.5386417,12.3419204 C50.5620609,12.0608899 50.5620609,11.6393443 50.5620609,11.2880562 L50.5620609,6.32318501 L50.5620609,6.32318501 L50.5620609,6.32318501 L51.3114754,6.32318501 L51.3114754,8.89929742 L51.3348946,8.89929742 C51.5925059,8.43091335 52.0608899,8.1498829 52.7400468,8.1498829 C53.7470726,8.1498829 54.4730679,8.99297424 54.4730679,10.234192 C54.4496487,11.7096019 53.5362998,12.4355972 52.6229508,12.4355972 Z M62.9742389,29.7892272 C62.0843091,30.7259953 60.8899297,31.2412178 59.5784543,31.2412178 C58.3138173,31.2412178 57.2131148,30.7494145 56.5105386,29.9297424 L56.5105386,35.2459016 L54.2622951,35.2459016 L54.2622951,23.8407494 C54.2622951,22.3887588 54.2388759,21.381733 54.1686183,20.4683841 L54.1451991,20.2810304 L56.1826698,20.2810304 L56.2763466,21.7564403 C57.0960187,20.6323185 58.3138173,20.0468384 59.8360656,20.0468384 C61.1241218,20.0468384 62.295082,20.5854801 63.1147541,21.5690867 C63.9578454,22.5761124 64.4262295,23.9344262 64.4262295,25.5035129 C64.4730679,27.2833724 63.9578454,28.7587822 62.9742389,29.7892272 Z M64.9180328,12.4355972 L64.9180328,12.4355972 C63.8173302,12.4355972 62.9508197,11.6159251 62.9508197,10.3278689 C62.9508197,8.94613583 63.8641686,8.1498829 64.9882904,8.1498829 C66.1592506,8.1498829 66.9555035,9.01639344 66.9555035,10.2576112 C66.9555035,11.7798595 65.9016393,12.4355972 64.9180328,12.4355972 Z M68.6416862,9.53161593 C68.618267,9.62529274 68.5948478,9.76580796 68.5948478,9.88290398 L68.5948478,12.3653396 L67.8454333,12.3653396 L67.8454333,9.3676815 L67.8454333,9.3676815 C67.8454333,8.94613583 67.8454333,8.59484778 67.8220141,8.26697892 L68.4777518,8.26697892 L68.5245902,8.94613583 L68.5480094,8.94613583 C68.7587822,8.57142857 69.2271663,8.17330211 69.9063232,8.17330211 C70.4683841,8.17330211 71.3583138,8.50117096 71.3583138,9.92974239 L71.3583138,12.3887588 L70.6088993,12.3887588 L70.6088993,9.9765808 C70.6088993,9.32084309 70.3747073,8.7587822 69.6487119,8.7587822 C69.1569087,8.7587822 68.7822014,9.11007026 68.6416862,9.53161593 Z M72.8805621,31.2412178 C71.5222482,31.2412178 69.9531616,30.8430913 69.1100703,30.2576112 L68.9929742,30.1873536 L69.6018735,28.2669789 L69.7892272,28.3840749 C70.7025761,28.969555 71.8735363,29.2974239 73.0210773,29.2974239 C74.7775176,29.2974239 75.8548009,28.4309133 75.8548009,27.0023419 C75.8548009,25.7611241 75.1522248,25.0351288 73.2552693,24.3091335 C70.5620609,23.3723653 69.3208431,22.0140515 69.3208431,20.0702576 C69.3208431,17.6580796 71.3114754,15.971897 74.1686183,15.971897 C75.9953162,15.971897 77.0491803,16.4871194 77.4238876,16.6978923 L77.5409836,16.7681499 L76.9086651,18.6416862 L76.7213115,18.5245902 C76.4637002,18.3606557 75.5503513,17.8688525 74.0983607,17.8688525 C72.3419204,17.8688525 71.5456674,18.8758782 71.5456674,19.8594848 C71.5456674,21.030445 72.2248244,21.6627635 74.3091335,22.4824356 C76.9789227,23.5362998 78.0796253,24.824356 78.0796253,26.8852459 C78.0796253,28.8992974 76.7213115,31.2412178 72.8805621,31.2412178 Z M84.8009368,22.0843091 L82.1077283,22.0843091 L82.1077283,27.4941452 C82.1077283,28.7822014 82.4824356,29.3208431 83.3489461,29.3208431 C83.8173302,29.3208431 84.0983607,29.2974239 84.3793911,29.2037471 L84.5901639,29.1334895 L84.70726,30.9133489 L84.5901639,30.9601874 C84.3091335,31.0538642 83.7002342,31.2177986 82.8571429,31.2177986 C81.9672131,31.2177986 81.1943794,30.9133489 80.7025761,30.3747073 C80.1873536,29.7892272 79.9297424,28.852459 79.9297424,27.5409836 L79.9297424,22.0843091 L78.3138173,22.0843091 L78.3138173,20.3044496 L79.9297424,20.3044496 L79.9297424,18.4543326 L82.1311475,17.7751756 L82.1311475,17.7751756 L82.1311475,20.3278689 L84.824356,20.3278689 L84.824356,22.0843091 L84.8009368,22.0843091 Z M84.9882904,10.4449649 L82.1077283,10.4449649 C82.1311475,11.4519906 82.763466,11.8735363 83.5128806,11.8735363 C84.0515222,11.8735363 84.3793911,11.7798595 84.6604215,11.6627635 L84.7775176,12.1779859 C84.5199063,12.295082 84.0515222,12.4355972 83.3957845,12.4355972 C82.1311475,12.4355972 81.381733,11.5925059 81.381733,10.3747073 C81.381733,9.13348946 82.1077283,8.1498829 83.3021077,8.1498829 C84.6370023,8.1498829 84.9882904,9.32084309 84.9882904,10.0702576 C85.0117096,10.234192 85.0117096,10.3512881 84.9882904,10.4449649 Z M90.2107728,31.2412178 L90.2107728,31.2412178 C87.1662763,31.2412178 85.0351288,28.969555 85.0351288,25.7377049 C85.0351288,22.3887588 87.2131148,20.0468384 90.3512881,20.0468384 C91.8501171,20.0468384 93.1615925,20.5854801 94.0983607,21.5690867 C95.0351288,22.5761124 95.5269321,23.9344262 95.5269321,25.5269321 C95.5269321,29.4613583 92.763466,31.2412178 90.2107728,31.2412178 Z M95.8079625,8.78220141 C95.3161593,8.78220141 94.9648712,9.11007026 94.8009368,9.53161593 C94.7540984,9.62529274 94.7540984,9.74238876 94.7540984,9.88290398 L94.7540984,12.3653396 L94.0046838,12.3653396 L94.0046838,6.32318501 L94.0046838,6.32318501 L94.7540984,6.32318501 L94.7540984,8.89929742 L94.7775176,8.89929742 C94.8946136,8.68852459 95.0819672,8.50117096 95.3161593,8.38407494 C95.5269321,8.24355972 95.8079625,8.17330211 96.088993,8.17330211 C96.6510539,8.17330211 97.5175644,8.50117096 97.5175644,9.92974239 L97.5175644,12.3653396 L96.7681499,12.3653396 L96.7681499,10 C96.7447307,9.32084309 96.5105386,8.78220141 95.8079625,8.78220141 Z M101.545667,22.1779859 C100.374707,22.1779859 99.4379391,23.0679157 99.1803279,24.4262295 C99.1334895,24.6838407 99.1100703,24.9882904 99.1100703,25.29274 L99.1100703,30.9836066 L96.8618267,30.9836066 L96.8852459,23.676815 C96.8852459,22.3419204 96.8618267,21.3348946 96.7915691,20.4449649 L96.7681499,20.2576112 L98.7822014,20.2576112 L98.852459,21.8266979 C99.4379391,20.7259953 100.491803,20.0234192 101.662763,20.0234192 C101.850117,20.0234192 102.014052,20.0468384 102.224824,20.0936768 L102.36534,20.117096 L102.36534,22.2482436 L102.131148,22.2248244 C101.943794,22.2014052 101.75644,22.1779859 101.545667,22.1779859 Z M111.779859,26.0187354 L111.75644,26.1592506 L104.543326,26.1358314 C104.683841,29.0632319 106.932084,29.3911007 107.892272,29.3911007 C109.274005,29.3911007 110.093677,29.1334895 110.702576,28.8992974 L110.88993,28.8290398 L111.311475,30.4918033 L111.17096,30.5620609 C110.491803,30.8665105 109.320843,31.2412178 107.63466,31.2412178 C104.42623,31.2412178 102.36534,29.1100703 102.36534,25.8313817 C102.36534,22.4355972 104.449649,20.0468384 107.423888,20.0468384 C110.702576,20.0468384 111.873536,22.763466 111.873536,25.1053864 C111.850117,25.4800937 111.826698,25.8079625 111.779859,26.0187354 Z" id="Shape"></path>
<path d="M35.5035129,18.6416862 C35.3161593,19.3676815 35.1288056,20.0702576 34.9180328,20.7025761 L33.5831382,24.6604215 L37.4473068,24.6604215 L36.088993,20.7494145 C35.8548009,20 35.6674473,19.3208431 35.5035129,18.6416862 Z" id="Shape"></path>
<path d="M83.2552693,8.68852459 C82.4824356,8.68852459 82.1779859,9.3911007 82.1077283,9.90632319 L84.2857143,9.90632319 C84.3091335,9.43793911 84.0983607,8.68852459 83.2552693,8.68852459 Z" id="Shape"></path>
<path d="M39.0398126,11.1709602 C39.0398126,11.6627635 39.3676815,11.8735363 39.7423888,11.8735363 C40.2810304,11.8735363 40.6323185,11.5456674 40.7494145,11.1943794 C40.7728337,11.1241218 40.7728337,11.030445 40.7728337,10.9601874 L40.7728337,10.2576112 C39.9531616,10.234192 39.0398126,10.3747073 39.0398126,11.1709602 Z" id="Shape"></path>
<path d="M90.2810304,21.8266979 C88.2201405,21.8266979 87.2833724,23.7704918 87.2833724,25.6674473 C87.2833724,27.8688525 88.5245902,29.4847775 90.2107728,29.4847775 L90.234192,29.4847775 C91.9437939,29.4847775 93.2084309,27.8454333 93.2084309,25.6206089 C93.2084309,23.7704918 92.295082,21.8266979 90.2810304,21.8266979 Z" id="Shape"></path>
</g>
</g>
</g>
</g>
</g>
</g>
</g>
</svg>