<svg width="107px" height="52px" viewBox="0 0 107 52" version="1.1" xmlns="http://www.w3.org/2000/svg" xmlns:xlink="http://www.w3.org/1999/xlink">
<defs>
<filter x="-1.7%" y="-39.0%" width="103.3%" height="175.6%" filterUnits="objectBoundingBox" id="filter-1">
<feOffset dx="0" dy="0" in="SourceAlpha" result="shadowOffsetOuter1"></feOffset>
<feGaussianBlur stdDeviation="5" in="shadowOffsetOuter1" result="shadowBlurOuter1"></feGaussianBlur>
<feColorMatrix values="0 0 0 0 0   0 0 0 0 0.0941176471   0 0 0 0 0.203921569  0 0 0 1 0" type="matrix" in="shadowBlurOuter1" result="shadowMatrixOuter1"></feColorMatrix>
<feMerge>
<feMergeNode in="shadowMatrixOuter1"></feMergeNode>
<feMergeNode in="SourceGraphic"></feMergeNode>
</feMerge>
</filter>
</defs>
<g id="Homepage-(Masami)" stroke="none" stroke-width="1" fill="none" fill-rule="evenodd">
<g id="HP-V3" transform="translate(-1053.000000, -619.000000)" fill="#FFFFFF">
<g id="Section:-Header" transform="translate(-102.000000, -5.000000)">
<g id="Page-1" filter="url(#filter-1)" transform="translate(352.000000, 634.000000)">
<g id="coolhunting" transform="translate(812.000000, 0.000000)">
<path d="M33.2199475,9.46418564 C33.6352715,11.3831874 35.0057618,12.747373 37.0216988,12.7434326 C38.6451664,12.7394921 39.7547986,11.9435201 40.3025219,10.4745184 C40.9590018,8.71392294 40.9534851,6.88555166 40.3513835,5.10998249 C39.8509457,3.63704028 38.4891243,2.77329247 36.9791419,2.72521891 C34.7984939,2.6558669 33.5036602,4.40858144 33.2057618,6.37565674 C33.1435026,6.7854641 33.0883363,8.85656743 33.2199475,9.46418564 M38.5017338,0.164711033 C43.2878109,1.20814361 44.7260771,6.64518389 43.4320315,10.9268827 C42.7582137,13.1595447 40.5815061,15.404028 37.5709982,15.3646235 C36.7710858,15.3543783 35.9491068,15.4087566 35.1744133,15.2503503 C32.5445534,14.7120841 31.0038354,12.980648 30.3181961,10.4658494 C29.7917513,8.53581436 29.8090893,6.58765324 30.4301051,4.67022767 C31.4514711,1.51707531 34.7338704,-0.42084063 38.0304553,0.0780210158 C38.192014,0.101663748 38.3488441,0.130823117 38.5017338,0.164711033" id="Fill-34"></path>
<path d="M25.7054203,7.76797723 C25.7156655,5.95694396 25.0647023,4.14512259 23.7635639,3.28610333 C22.2654028,2.29941331 19.4574343,2.40816988 18.4006042,4.97104203 C17.6944746,6.6859282 17.6850175,8.45755692 18.2619002,10.2008144 C18.8277496,11.9141243 20.2455254,12.7699912 21.9257356,12.7518651 C24.4413222,12.7258581 25.6928109,10.2473117 25.7054203,7.76797723 M23.4680298,0.153441331 C26.3571716,0.867451839 28.4913222,3.43584063 28.6371191,6.43689142 C28.7190806,8.14310858 28.6812522,9.79652364 28.0696935,11.4073818 C27.1696935,13.7779597 25.1025306,15.2895184 22.5554203,15.3549299 C21.6262609,15.3785727 20.666366,15.3872417 19.7687303,15.1894308 C17.3666287,14.6598336 15.9189054,13.010359 15.2293257,10.7461734 C14.6224956,8.75151489 14.6240718,6.66386165 15.2387828,4.67866025 C15.9551576,2.36640105 17.6164536,0.786278459 19.9744221,0.215700525 C20.8255604,0.0092206655 21.7137391,0.0328633975 22.5893082,0.0565061296 C22.8541068,0.0643870403 23.1204816,0.0706917688 23.3781874,0.131374781 C23.4081349,0.138467601 23.4380823,0.14556042 23.4680298,0.153441331" id="Fill-35"></path>
<path d="M79.8689492,32.2088091 C77.7001226,31.7414711 75.7890018,29.9942732 75.0363748,27.9373555 C74.276655,25.8607356 74.3294571,23.75338 74.9812084,21.6460245 C75.7369877,19.201366 78.0736778,17.029387 81.3300701,17.0025919 C83.8811208,16.9813135 86.0932925,17.8954991 87.2691243,20.1139755 C87.6710508,20.8744834 87.7553765,22.0778984 87.637951,22.0778984 L84.886725,22.0778984 C84.8031874,21.892697 84.7937303,21.7807881 84.7503853,21.658634 C84.2444308,20.2440105 83.1363748,19.7144133 81.744606,19.6363923 C80.2716637,19.5536427 79.1045009,20.1557443 78.422014,21.451366 C77.3864623,23.4160771 77.3620315,25.4903327 78.1855867,27.5228196 C78.7750788,28.9784238 80.5805954,29.827986 82.1890893,29.5718564 C83.8038879,29.3149387 84.8819965,28.1556567 85.1010858,26.3414711 L82.0811208,26.3414711 L82.0811208,24.2246585 L87.637951,24.2246585 C87.637951,26.7252715 87.637951,29.2266725 87.6332224,31.7280736 C87.1501226,31.7343783 86.6678109,31.7422592 86.1854991,31.7501401 C86.0972329,31.7517163 85.9995096,31.749352 85.9364623,31.688669 C85.8891769,31.6421716 85.872627,31.5736077 85.8584413,31.5089842 L85.5928546,30.2945359 C84.5029247,31.1653765 83.3081786,31.9865674 81.9376883,32.2442732 C81.2410158,32.3750963 80.541979,32.3538179 79.8689492,32.2088091" id="Fill-36"></path>
<path d="M0.738143608,7.05144483 C0.857145359,5.56746935 1.31187391,4.02596322 2.13858144,2.86825744 C3.29549912,1.25109457 4.85119089,0.314842382 6.89313485,0.303021016 C7.8766725,0.298292469 8.86099825,0.275437828 9.80355517,0.6308669 C11.9463748,1.43787215 13.2278109,2.94076182 13.584028,5.26090193 C13.0418214,5.56037653 12.5011909,5.40275832 11.9865674,5.43034151 C11.5026795,5.45634851 11.0156392,5.43585814 10.5049562,5.43585814 C10.4292995,5.19391419 10.3891068,5.02447461 10.3260595,4.8660683 C9.89339755,3.78480736 9.14943958,3.10941331 7.9476007,2.99119965 C6.64882662,2.86274081 5.55259194,3.1724606 4.83227671,4.34908056 C4.0032049,5.70302102 3.84952715,7.20748687 3.98113835,8.73480736 C4.04103327,9.43226795 4.24357268,10.1447023 4.52570928,10.7877846 C5.11677758,12.1401489 6.22877408,12.7848074 7.60399299,12.7044221 C8.81844133,12.6334939 9.85478109,11.7697461 10.303993,10.4441769 C10.3725569,10.2416375 10.3985639,10.0241243 10.4631874,9.73016637 L11.8352539,9.73016637 L13.514676,9.73016637 C13.0662522,12.3623905 11.8415587,14.2782399 9.32833625,15.0308669 C6.80250438,15.7866462 4.45162872,15.3374343 2.57360771,13.3498687 C1.39383538,12.1007443 0.836654991,10.1360333 0.725534151,8.45345884 C0.69558669,8.00188266 0.699527145,7.52981611 0.738143608,7.05144483" id="Fill-37"></path>
<path d="M20.013275,32.2034501 C17.8901576,31.7975832 16.0176532,30.3845359 15.9908581,28.0029247 C15.9506655,24.474641 15.9790368,20.9471454 15.9790368,17.3605429 C16.8356918,17.1162347 17.6702802,17.3290193 18.5781611,17.2186865 C18.6081086,17.6403152 18.6530298,17.9823468 18.6538179,18.3243783 C18.6601226,20.7375131 18.6388441,23.1514361 18.6680035,25.5645709 C18.6782487,26.3605429 18.7649387,27.1636077 18.9115236,27.9469702 C18.9792995,28.3126445 19.2228196,28.6822592 19.4742207,28.9730648 C20.3434851,29.9770928 23.3547811,29.8462697 24.0270228,28.2314711 C24.358021,27.434711 24.5715937,26.6426795 24.5668651,25.7773555 C24.5526795,23.4083538 24.5621366,21.0385639 24.5621366,18.6695622 L24.5621366,17.3053765 L27.2463748,17.3053765 L27.2463748,18.1360245 C27.2463748,21.0417163 27.2526795,23.94662 27.2408581,26.8523117 C27.239282,27.2944308 27.1975131,27.7444308 27.1092469,28.1770928 C26.7341156,30.0030998 25.6331524,31.3270928 23.8528546,31.9252539 C23.0631874,32.1908406 22.2301751,32.315359 21.3971629,32.3256042 C20.9345534,32.3311208 20.4680035,32.2901401 20.013275,32.2034501" id="Fill-38"></path>
<path d="M32.0809194,21.7119877 L32.0809194,31.6695184 L29.4589405,31.6695184 L29.4589405,17.3120753 L32.8587653,17.3120753 C34.8502715,20.537732 36.8599037,23.7941243 38.9798687,27.2278371 C39.1177846,26.014965 39.0405517,24.9794133 39.0539492,23.9493783 C39.0665587,22.8326532 39.0571016,21.7159282 39.0571016,20.5992032 L39.0571016,17.2939492 C39.943704,17.2127758 40.7688354,17.2411471 41.6688354,17.2718827 L41.6688354,31.6671541 L38.1862609,31.6671541 C36.2522855,28.5132137 34.2552627,25.2560333 32.0809194,21.7119877" id="Fill-39"></path>
<path d="M63.7692732,22.1683713 L63.7692732,31.598669 C62.9141944,31.8815937 62.0748774,31.6806305 61.2560508,31.7279159 C60.9975569,30.6860595 60.9077145,21.3046235 61.1165587,17.3397373 C62.1071891,17.1364098 63.1198862,17.2892995 64.2153327,17.2538354 C65.9767163,20.5173205 67.739676,23.7855342 69.6444921,27.3169702 L69.6444921,17.3223993 L72.8055254,17.3223993 L72.8055254,31.6735377 L69.5948424,31.6735377 C67.7554378,28.5392995 65.8663835,25.3223117 63.9781173,22.1061121 C63.9087653,22.1266025 63.8386252,22.1478809 63.7692732,22.1683713" id="Fill-40"></path>
<path d="M10.0836427,22.6062347 L10.0836427,17.3149912 L13.2249737,17.3149912 L13.2249737,31.6763748 L10.0702452,31.6763748 L10.0702452,25.352732 L4.81525394,25.352732 C4.5717338,26.3599124 4.73565674,27.4230473 4.70649737,28.4727846 C4.67812609,29.4988792 4.70019264,30.5265499 4.70019264,31.6188441 C3.67567426,31.877338 2.65982487,31.6582487 1.67077058,31.7536077 C1.41464098,30.6676182 1.32795096,21.1506305 1.52970228,17.3607005 C2.01753065,17.1447636 2.55500876,17.2716462 3.07278459,17.2503678 C3.56061296,17.2298774 4.04844133,17.2456392 4.65054291,17.2456392 L4.65054291,22.600718 C6.48285464,22.6251489 8.20089317,22.6141156 10.0836427,22.6062347" id="Fill-41"></path>
<path d="M47.0893257,31.7324081 L47.0893257,19.9465061 L42.8746147,19.9465061 L42.8746147,17.3008844 L53.9725131,17.3008844 C54.2254904,18.0834588 54.03162,18.9227758 54.0789054,19.8196235 C52.8794308,20.0820578 51.6736515,19.8125306 50.4134939,19.9906392 C50.2393257,21.2531611 50.354387,22.5385377 50.3338967,23.8168214 C50.3141944,25.1140193 50.3291681,26.4104291 50.3291681,27.7084151 L50.3291681,31.7079772 C49.2652452,31.7710245 48.2588529,31.7276795 47.0893257,31.7324081" id="Fill-42"></path>
<polygon id="Fill-43" points="46.1072855 0.642057793 49.2163047 0.642057793 49.2163047 12.3735814 55.6219089 12.3735814 55.6219089 15.0278722 46.1072855 15.0278722"></polygon>
<path d="M55.7706217,17.2843345 L58.309063,17.2843345 L58.309063,31.6985201 C57.494965,31.7741769 56.6706217,31.7442294 55.7706217,31.714282 L55.7706217,17.2843345 Z" id="Fill-44"></path>
</g>
</g>
</g>
</g>
</g>
</svg>