<svg width="30" height="29" viewBox="0 0 30 29" fill="none" xmlns="http://www.w3.org/2000/svg">
<path d="M10.3996 1.00257C10.35 1.00257 10.3004 1.02946 10.2631 1.04291L1.23564 4.46847C1.09917 4.52225 1 4.66967 1 4.831V27.924C1 28.1526 1.24792 28.3538 1.45855 28.2736L10.4487 24.8744L19.4266 28.2736C19.4389 28.2866 19.4517 28.2866 19.4639 28.2866C19.4758 28.3 19.5008 28.3 19.5258 28.3H19.5754C19.5877 28.3 19.6127 28.3 19.6377 28.2866C19.6377 28.2866 19.65 28.2736 19.6627 28.2736L19.6996 28.2601C19.7119 28.2601 19.7246 28.2467 19.7369 28.2467L28.7521 24.8346C28.8885 24.7813 29 24.6334 29 24.4721V1.37855C29 1.16343 28.8017 0.975685 28.6033 1.00257C28.5783 1.00257 28.5537 1.01602 28.5287 1.02946L19.5385 4.42862L10.6348 1.05635C10.6102 1.04291 10.5852 1.02946 10.5606 1.02946C10.5606 1.01602 10.5483 1.01602 10.5483 1.01602H10.5233C10.5233 1.01602 10.5233 1.00257 10.511 1.00257H10.4988H10.4865H10.4615H10.4365H10.4119H10.3996ZM10.1016 1.91587V24.1892L1.69419 27.3867V5.08646L10.1016 1.91587ZM10.7963 1.91587L19.2037 5.09942V27.3867L10.7963 24.2027V1.91587ZM28.2931 1.91587V24.1892L19.8979 27.3867V5.08646L28.2931 1.91587Z" fill="#FF5E5B"/>
</svg>
