<svg width="157px" height="43px" viewBox="0 0 157 43" version="1.1" xmlns="http://www.w3.org/2000/svg" xmlns:xlink="http://www.w3.org/1999/xlink">
    <defs>
        <filter x="-1.7%" y="-39.0%" width="103.3%" height="175.6%" filterUnits="objectBoundingBox" id="filter-1">
            <feOffset dx="0" dy="0" in="SourceAlpha" result="shadowOffsetOuter1"></feOffset>
            <feGaussianBlur stdDeviation="5" in="shadowOffsetOuter1" result="shadowBlurOuter1"></feGaussianBlur>
            <feColorMatrix values="0 0 0 0 0   0 0 0 0 0.0941176471   0 0 0 0 0.203921569  0 0 0 1 0" type="matrix" in="shadowBlurOuter1" result="shadowMatrixOuter1"></feColorMatrix>
            <feMerge>
                <feMergeNode in="shadowMatrixOuter1"></feMergeNode>
                <feMergeNode in="SourceGraphic"></feMergeNode>
            </feMerge>
        </filter>
    </defs>
    <g id="Homepage-(Masami)" stroke="none" stroke-width="1" fill="none" fill-rule="evenodd">
        <g id="HP-V3" transform="translate(-240.000000, -628.000000)" fill="#FFFFFF">
            <g id="Section:-Header" transform="translate(-102.000000, -5.000000)">
                <g id="Page-1" filter="url(#filter-1)" transform="translate(352.000000, 634.000000)">
                    <g id="mashable" transform="translate(0.000000, 8.000000)">
                        <polygon id="Fill-9" points="20.2279335 23.9148511 20.2279335 8.66607706 14.4212785 23.9148511 11.7922067 23.9148511 5.94851138 8.66607706 5.94851138 23.9148511 0 23.9148511 0 0.854518389 8.26549912 0.854518389 13.1067426 13.5790368 17.9109457 0.854518389 26.1764448 0.854518389 26.1764448 23.9148511"></polygon>
                        <path d="M37.9961559,19.6264536 L37.9961559,18.14169 C37.4429159,17.3472942 36.1993082,16.964282 35.0219002,16.964282 C33.6411646,16.964282 32.3597285,17.5884501 32.3597285,18.902986 C32.3597285,20.2175219 33.6411646,20.8369615 35.0219002,20.8369615 C36.1993082,20.8369615 37.4429159,20.4255779 37.9961559,19.6264536 L37.9961559,19.6264536 Z M37.9961559,23.9144571 L37.9961559,22.2555254 C36.9606042,23.4991331 34.950972,24.3313573 32.8089405,24.3313573 C30.2507968,24.3313573 27.0692732,22.5668214 27.0692732,18.8320578 C27.0692732,14.7891506 30.2507968,13.4367863 32.8089405,13.4367863 C35.0219002,13.4367863 36.993704,14.1649825 37.9961559,15.4085902 L37.9961559,13.7488704 C37.9961559,12.2972067 36.7525482,11.2955429 34.6057881,11.2955429 C32.9460683,11.2955429 31.2863485,11.9528109 29.9387128,13.0916025 L27.9669089,9.39466725 C30.1144571,7.55920315 32.9838967,6.80342382 35.5420403,6.80342382 C39.5518476,6.80342382 43.3204991,8.2873993 43.3204991,13.4746147 L43.3204991,23.9144571 L37.9961559,23.9144571 Z" id="Fill-11"></path>
                        <path d="M43.6986252,21.7368039 L45.9115849,17.9358406 C47.1551926,19.0423205 49.8173643,20.1811121 51.7891681,20.1811121 C53.3771716,20.1811121 54.0344396,19.7326883 54.0344396,19.003704 C54.0344396,16.9326007 44.3227933,19.0754203 44.3227933,12.2994133 C44.3227933,9.35825744 46.880937,6.80011384 51.4770841,6.80011384 C54.3134238,6.80011384 56.6635114,7.69932574 58.460359,9.01307356 L56.4223555,12.781725 C55.4199037,11.812373 53.519028,10.9517776 51.5141243,10.9517776 C50.2657881,10.9517776 49.4390806,11.4340893 49.4390806,12.0913573 C49.4390806,13.9213047 59.117627,12.0204291 59.117627,18.8665762 C59.117627,22.0488879 56.3183275,24.3280473 51.5472242,24.3280473 C48.5406567,24.3280473 45.462373,23.3263835 43.6986252,21.7368039" id="Fill-13"></path>
                        <path d="M71.114028,23.9148511 L71.114028,14.1984764 C71.114028,12.1604729 70.040648,11.5032049 68.3478284,11.5032049 C66.7921366,11.5032049 65.7565849,12.3685289 65.1324168,13.1290368 L65.1324168,23.9148511 L59.8080736,23.9148511 L59.8080736,0.854518389 L65.1324168,0.854518389 L65.1324168,9.25714536 C66.1348687,8.0797373 68.1066725,6.80302977 70.905972,6.80302977 C74.7077233,6.80302977 76.4383713,8.9450613 76.4383713,12.023345 L76.4383713,23.9148511 L71.114028,23.9148511 Z" id="Fill-15"></path>
                        <path d="M88.1230035,19.6264536 L88.1230035,18.14169 C87.5697636,17.3472942 86.3261559,16.964282 85.1487478,16.964282 C83.7680123,16.964282 82.4865762,17.5884501 82.4865762,18.902986 C82.4865762,20.2175219 83.7680123,20.8369615 85.1487478,20.8369615 C86.3261559,20.8369615 87.5697636,20.4255779 88.1230035,19.6264536 L88.1230035,19.6264536 Z M88.1230035,23.9144571 L88.1230035,22.2555254 C87.0874518,23.4991331 85.0778196,24.3313573 82.9357881,24.3313573 C80.3776445,24.3313573 77.1953327,22.5668214 77.1953327,18.8320578 C77.1953327,14.7891506 80.3776445,13.4367863 82.9357881,13.4367863 C85.1487478,13.4367863 87.1205517,14.1649825 88.1230035,15.4085902 L88.1230035,13.7488704 C88.1230035,12.2972067 86.8793958,11.2955429 84.7326357,11.2955429 C83.0729159,11.2955429 81.4131961,11.9528109 80.0655604,13.0916025 L78.0937566,9.39466725 C80.2405166,7.55920315 83.1107443,6.80342382 85.6688879,6.80342382 C89.6786953,6.80342382 93.4465587,8.2873993 93.4465587,13.4746147 L93.4465587,23.9144571 L88.1230035,23.9144571 Z" id="Fill-17"></path>
                        <path d="M103.78324,19.6264536 C105.892172,19.6264536 107.480963,18.0707618 107.480963,15.5504466 C107.480963,13.0585026 105.892172,11.5028109 103.78324,11.5028109 C102.64366,11.5028109 101.258196,12.126979 100.600928,13.0254028 L100.600928,18.14169 C101.258196,19.0401138 102.64366,19.6264536 103.78324,19.6264536 L103.78324,19.6264536 Z M95.277373,23.9144571 L95.277373,0.854912434 L100.600928,0.854912434 L100.600928,9.18661121 C101.915464,7.52610333 103.712312,6.80342382 105.546988,6.80342382 C109.730963,6.80342382 112.909335,10.085035 112.909335,15.5504466 C112.909335,21.2191856 109.660823,24.3313573 105.546988,24.3313573 C103.679212,24.3313573 101.986392,23.5700613 100.600928,21.9812697 L100.600928,23.9144571 L95.277373,23.9144571 Z" id="Fill-19"></path>
                        <polygon id="Fill-21" points="113.669527 23.9160333 118.993082 23.9160333 118.993082 0.855700525 113.669527 0.855700525"></polygon>
                        <path d="M128.603932,11.089063 C126.286944,11.089063 125.38852,12.4697986 125.180464,13.6803065 L132.060499,13.6803065 C131.922583,12.5028984 131.058047,11.089063 128.603932,11.089063 M119.752093,15.5480823 C119.752093,10.7060508 123.383616,6.80105954 128.603932,6.80105954 C133.549203,6.80105954 137.142898,10.4317951 137.142898,16.1013222 L137.142898,17.3118301 L125.251392,17.3118301 C125.629676,18.7958056 127.01514,20.0441419 129.431427,20.0441419 C130.608047,20.0441419 132.546751,19.5247898 133.512163,18.6255779 L135.828363,22.1152452 C134.169431,23.6055254 131.403231,24.328993 128.845088,24.328993 C123.695701,24.328993 119.752093,20.9764536 119.752093,15.5480823" id="Fill-23"></path>
                    </g>
                </g>
            </g>
        </g>
    </g>
</svg>