<svg width="128" height="19" viewBox="0 0 128 19" fill="none" xmlns="http://www.w3.org/2000/svg">
<path d="M10.2013 0.306L12.6793 6.171L19.0233 6.716C19.4633 6.754 19.6423 7.303 19.3083 7.592L14.4963 11.761L15.9383 17.963C16.0383 18.394 15.5713 18.733 15.1933 18.504L9.74128 15.216L4.28928 18.504C3.91028 18.732 3.44428 18.393 3.54428 17.963L4.98628 11.761L0.173282 7.591C-0.160718 7.302 0.0172817 6.753 0.458282 6.715L6.80228 6.17L9.28028 0.306C9.45228 -0.102 10.0293 -0.102 10.2013 0.306Z" fill="#122842"/>
<path d="M37.2013 0.306L39.6793 6.171L46.0233 6.716C46.4633 6.754 46.6423 7.303 46.3083 7.592L41.4963 11.761L42.9383 17.963C43.0383 18.394 42.5713 18.733 42.1933 18.504L36.7413 15.216L31.2893 18.504C30.9103 18.732 30.4443 18.393 30.5443 17.963L31.9863 11.761L27.1733 7.591C26.8393 7.302 27.0173 6.753 27.4583 6.715L33.8023 6.17L36.2803 0.306C36.4523 -0.102 37.0293 -0.102 37.2013 0.306Z" fill="#122842"/>
<path d="M64.2013 0.306L66.6793 6.171L73.0233 6.716C73.4633 6.754 73.6423 7.303 73.3083 7.592L68.4963 11.761L69.9383 17.963C70.0383 18.394 69.5713 18.733 69.1933 18.504L63.7413 15.216L58.2893 18.504C57.9103 18.732 57.4443 18.393 57.5443 17.963L58.9863 11.761L54.1733 7.591C53.8393 7.302 54.0173 6.753 54.4583 6.715L60.8023 6.17L63.2803 0.306C63.4523 -0.102 64.0293 -0.102 64.2013 0.306Z" fill="#122842"/>
<path d="M91.2013 0.306L93.6793 6.171L100.023 6.716C100.463 6.754 100.642 7.303 100.308 7.592L95.4963 11.761L96.9383 17.963C97.0383 18.394 96.5713 18.733 96.1933 18.504L90.7413 15.216L85.2893 18.504C84.9103 18.732 84.4443 18.393 84.5443 17.963L85.9863 11.761L81.1733 7.591C80.8393 7.302 81.0173 6.753 81.4583 6.715L87.8023 6.17L90.2803 0.306C90.4523 -0.102 91.0293 -0.102 91.2013 0.306Z" fill="#122842"/>
<path d="M118.201 0.306L120.679 6.171L127.023 6.716C127.463 6.754 127.642 7.303 127.308 7.592L122.496 11.761L123.938 17.963C124.038 18.394 123.571 18.733 123.193 18.504L117.741 15.216L112.289 18.504C111.91 18.732 111.444 18.393 111.544 17.963L112.986 11.761L108.173 7.591C107.839 7.302 108.017 6.753 108.458 6.715L114.802 6.17L117.28 0.306C117.452 -0.102 118.029 -0.102 118.201 0.306Z" fill="#122842"/>
</svg>
