<svg width="166px" height="38px" viewBox="0 0 166 38" version="1.1" xmlns="http://www.w3.org/2000/svg" xmlns:xlink="http://www.w3.org/1999/xlink">
    <defs>
        <filter x="-1.7%" y="-39.0%" width="103.3%" height="175.6%" filterUnits="objectBoundingBox" id="filter-1">
            <feOffset dx="0" dy="0" in="SourceAlpha" result="shadowOffsetOuter1"></feOffset>
            <feGaussianBlur stdDeviation="5" in="shadowOffsetOuter1" result="shadowBlurOuter1"></feGaussianBlur>
            <feColorMatrix values="0 0 0 0 0   0 0 0 0 0.0941176471   0 0 0 0 0.203921569  0 0 0 1 0" type="matrix" in="shadowBlurOuter1" result="shadowMatrixOuter1"></feColorMatrix>
            <feMerge>
                <feMergeNode in="shadowMatrixOuter1"></feMergeNode>
                <feMergeNode in="SourceGraphic"></feMergeNode>
            </feMerge>
        </filter>
    </defs>
    <g id="Homepage-(Masami)" stroke="none" stroke-width="1" fill="none" fill-rule="evenodd">
        <g id="HP-V3" transform="translate(-698.000000, -633.000000)" fill="#FFFFFF">
            <g id="Section:-Header" transform="translate(-102.000000, -5.000000)">
                <g id="Page-1" filter="url(#filter-1)" transform="translate(352.000000, 634.000000)">
                    <g id="techcrunch" transform="translate(458.000000, 13.000000)">
                        <polygon id="Fill-24" points="9.99984238 5.47033275 9.99984238 19.0136778 5.05220665 19.0136778 5.05220665 5.47033275 0.0533450088 5.47033275 0.0533450088 1.15947461 14.9994921 1.15947461 14.9994921 5.47033275"></polygon>
                        <path d="M20.4805867,8.73507881 C19.4340018,8.73507881 18.8484501,9.44830123 18.6947723,10.7746585 L22.5209545,10.7746585 C22.2908319,9.42308231 21.8313748,8.73507881 20.4805867,8.73507881 M26.549676,13.6322767 L18.6947723,13.6322767 C18.8484501,15.1115236 19.7145622,15.7743082 20.9644746,15.7743082 C22.1379422,15.7743082 23.1072942,15.5181786 24.4336515,14.8301751 L26.1926708,17.7634501 C24.5361033,18.7328021 22.8259457,19.2931349 20.7351401,19.2931349 C16.7048424,19.2931349 14.486366,16.4355166 14.486366,12.3303503 C14.486366,7.71450088 17.0870665,5.34234676 20.6074694,5.34234676 C24.2799737,5.34234676 26.575683,7.7657268 26.575683,12.7377933 C26.575683,13.1215937 26.575683,13.4021541 26.549676,13.6322767" id="Fill-25"></path>
                        <path d="M35.091007,19.2934501 C31.1647373,19.2934501 28.817014,16.7944133 28.817014,12.2802277 C28.817014,8.17348511 30.9086077,5.342662 35.1934588,5.342662 C37.7185026,5.342662 39.1733187,6.51534151 40.3459982,8.40281961 L37.1826007,10.8001926 C36.5458231,9.62672504 36.1107968,9.0656042 35.117014,9.0656042 C33.9435464,9.0656042 33.3572067,10.2398599 33.3572067,12.3558844 C33.3572067,14.4742732 33.9939842,15.5689317 35.2438967,15.5689317 C36.1107968,15.5689317 36.7231436,15.0850438 37.565613,13.8351313 L40.4728809,16.1048336 C38.9171891,18.4005429 37.4631611,19.2934501 35.091007,19.2934501" id="Fill-26"></path>
                        <path d="M50.7481699,19.0133625 L50.7481699,11.4122242 C50.7481699,9.67763573 50.1618301,9.21896673 49.2184851,9.21896673 C48.248345,9.21896673 47.6620053,9.67763573 47.6620053,11.3609982 L47.6620053,19.0133625 L43.0713748,19.0133625 L43.0713748,2.25618214 L47.6620053,0.419929947 L47.6620053,6.51581436 C48.5028984,5.8774606 49.4478196,5.34234676 51.0279422,5.34234676 C53.9620053,5.34234676 55.3648074,7.3062697 55.3648074,10.8258844 L55.3648074,19.0133625 L50.7481699,19.0133625 Z" id="Fill-27"></path>
                        <path d="M66.3545797,19.2934501 C61.0491506,19.2934501 58.2183275,15.3656042 58.2183275,10.0861821 C58.2183275,4.34730298 61.5842644,0.878914186 66.3790105,0.878914186 C70.7671016,0.878914186 72.50169,2.7656042 73.7255954,6.13311734 L69.2366287,7.89292469 C68.598275,6.23556918 67.9867163,5.18977233 66.3545797,5.18977233 C64.288993,5.18977233 63.3960858,7.25535902 63.3960858,10.0861821 C63.3960858,12.8153415 64.262986,14.9825919 66.4050175,14.9825919 C67.9607093,14.9825919 68.624282,14.1416988 69.5928459,12.4583363 L73.7768214,14.6768126 C72.5773468,17.0237478 70.5874168,19.2934501 66.3545797,19.2934501" id="Fill-28"></path>
                        <path d="M85.0693783,10.6729159 C84.4830385,10.0345622 83.8202539,9.55067426 82.9281349,9.55067426 C81.804317,9.55067426 81.1163135,10.0865762 81.1163135,11.7187128 L81.1163135,19.0132837 L76.525683,19.0132837 L76.525683,5.62282837 L81.1163135,5.62282837 L81.1163135,6.59139229 C81.9067688,5.82694396 82.799676,5.34226795 83.9731436,5.34226795 C84.9424956,5.34226795 85.6060683,5.57081436 86.1411821,5.90338879 L85.0693783,10.6729159 Z" id="Fill-29"></path>
                        <path d="M95.9841243,19.0133625 L95.9841243,18.1196673 C95.167662,18.7572329 94.19831,19.2931349 92.6434063,19.2931349 C89.7101313,19.2931349 88.3065412,17.33 88.3065412,13.8088091 L88.3065412,5.62290718 L92.9231786,5.62290718 L92.9231786,13.2240455 C92.9231786,14.9578459 93.5095184,15.4165149 94.4536515,15.4165149 C95.3977846,15.4165149 95.9841243,14.9578459 95.9841243,13.2736953 L95.9841243,5.62290718 L100.600762,5.62290718 L100.600762,19.0133625 L95.9841243,19.0133625 Z" id="Fill-30"></path>
                        <path d="M111.589746,19.0133625 L111.589746,11.4122242 C111.589746,9.67763573 111.003406,9.21896673 110.060061,9.21896673 C109.089921,9.21896673 108.503581,9.67763573 108.503581,11.3609982 L108.503581,19.0133625 L103.912951,19.0133625 L103.912951,5.62290718 L108.503581,5.62290718 L108.503581,6.51581436 C109.344475,5.8774606 110.289396,5.34234676 111.869518,5.34234676 C114.803581,5.34234676 116.206384,7.3062697 116.206384,10.8258844 L116.206384,19.0133625 L111.589746,19.0133625 Z" id="Fill-31"></path>
                        <path d="M125.154291,19.2934501 C121.227233,19.2934501 118.880298,16.7944133 118.880298,12.2802277 C118.880298,8.17348511 120.971103,5.342662 125.255954,5.342662 C127.780998,5.342662 129.235814,6.51534151 130.408494,8.40281961 L127.245884,10.8001926 C126.608319,9.62672504 126.174081,9.0656042 125.180298,9.0656042 C124.006042,9.0656042 123.419702,10.2398599 123.419702,12.3558844 C123.419702,14.4742732 124.05648,15.5689317 125.30718,15.5689317 C126.174081,15.5689317 126.786427,15.0850438 127.628109,13.8351313 L130.535377,16.1048336 C128.979685,18.4005429 127.526445,19.2934501 125.154291,19.2934501" id="Fill-32"></path>
                        <path d="M140.811454,19.0133625 L140.811454,11.4122242 C140.811454,9.67763573 140.225114,9.21896673 139.280981,9.21896673 C138.310841,9.21896673 137.724501,9.67763573 137.724501,11.3609982 L137.724501,19.0133625 L133.13387,19.0133625 L133.13387,2.25618214 L137.724501,0.419929947 L137.724501,6.51581436 C138.566182,5.8774606 139.510315,5.34234676 141.091226,5.34234676 C144.024501,5.34234676 145.427303,7.3062697 145.427303,10.8258844 L145.427303,19.0133625 L140.811454,19.0133625 Z" id="Fill-33"></path>
                    </g>
                </g>
            </g>
        </g>
    </g>
</svg>