<svg width="109px" height="48px" viewBox="0 0 109 48" version="1.1" xmlns="http://www.w3.org/2000/svg" xmlns:xlink="http://www.w3.org/1999/xlink">
<desc>Created with Sketch.</desc>
<defs>
<filter x="-1.7%" y="-39.0%" width="103.3%" height="175.6%" filterUnits="objectBoundingBox" id="filter-1">
<feOffset dx="0" dy="0" in="SourceAlpha" result="shadowOffsetOuter1"></feOffset>
<feGaussianBlur stdDeviation="5" in="shadowOffsetOuter1" result="shadowBlurOuter1"></feGaussianBlur>
<feColorMatrix values="0 0 0 0 0   0 0 0 0 0.0941176471   0 0 0 0 0.203921569  0 0 0 1 0" type="matrix" in="shadowBlurOuter1" result="shadowMatrixOuter1"></feColorMatrix>
<feMerge>
<feMergeNode in="shadowMatrixOuter1"></feMergeNode>
<feMergeNode in="SourceGraphic"></feMergeNode>
</feMerge>
</filter>
</defs>
<g id="Homepage-(Masami)" stroke="none" stroke-width="1" fill="none" fill-rule="evenodd">
<g id="HP-V3" transform="translate(-862.000000, -624.000000)" fill="#FFFFFF">
<g id="Section:-Header" transform="translate(-102.000000, -5.000000)">
<g id="Page-1" filter="url(#filter-1)" transform="translate(352.000000, 634.000000)">
<g id="time" transform="translate(622.000000, 5.000000)">
<path d="M9.78431699,1.96987741 L7.18204028,1.95647986 L3.15095447,1.95411559 C2.87197023,1.95411559 0.709448336,1.97302977 0.709448336,1.97302977 L0.669255692,5.20971979 L0.275210158,5.22154116 L0.299640981,1.5821366 L0.287031524,0.0871278459 C1.66067426,0.14938704 6.62564799,0.192732049 11.7766112,0.195884413 C17.7834413,0.199824869 21.6545447,0.147022767 23.1724081,0.106042032 L23.154282,1.76103327 L23.1834413,5.44220665 L22.7744221,5.43669002 C22.7775744,5.13721541 22.7090105,3.91567426 22.712951,3.79588441 C22.7137391,3.75175131 22.6278371,2.11252189 22.6160158,1.98879159 L20.8908844,1.96514886 L15.7225832,1.96120841 L13.7421103,1.96751313 L13.7334413,24.6708406 C13.7334413,24.7031524 13.7689054,26.1603327 13.7767863,26.4621716 C13.9745972,26.4881786 15.8904466,26.612697 16.2372067,26.6134851 L16.3719702,26.612697 L16.3719702,27.2297723 C16.2687303,27.2297723 16.1402715,27.2400175 16.0330911,27.2392294 C14.9463135,27.2274081 13.1888704,27.106042 11.9405342,27.1052539 C10.7126883,27.1044658 8.97967601,27.2155867 7.69902802,27.2329247 C7.66514011,27.2337128 7.40191769,27.2274081 7.3041944,27.2226795 L7.30183012,26.5630473 C7.31443958,26.5646235 7.3924606,26.5622592 7.51382662,26.5583187 C8.05524518,26.5386165 9.38711909,26.456655 9.73387916,26.4298599 L9.78904553,26.4227671 L9.78825744,24.4793345 L9.78431699,1.96987741 Z" id="Fill-1"></path>
<path d="M42.8794921,0.0812171629 C42.8794921,0.0812171629 44.8181961,5.66957093 45.1326445,6.48682137 C45.448669,7.30485989 51.3735377,21.4424256 51.3735377,21.4424256 C51.3735377,21.4424256 54.1625919,15.3552102 56.6474431,8.82114711 C57.1510333,7.4987303 57.8106655,5.77438704 58.2961296,4.37710158 C59.0101401,2.33279335 59.7927145,0.0914623468 59.7927145,0.0914623468 L61.3192469,0.0922504378 C61.3192469,0.0922504378 61.6967426,2.58892294 61.8299299,3.70091944 C62.2184588,6.93524518 64.7632049,20.0829685 65.6561121,24.4080123 C65.8791419,25.4892732 66.0485814,26.4263135 66.0485814,26.4263135 C66.3102277,26.4428634 67.342627,26.5390105 67.9549737,26.5870841 C68.0818564,26.5973292 68.4254641,26.6138792 68.5050613,26.6146673 L68.5058494,27.2656305 C68.5058494,27.2656305 68.2292294,27.279028 68.0763398,27.279028 C66.7074256,27.270359 64.5756392,27.1552977 63.2595271,27.1545096 C62.0907881,27.1545096 60.964606,27.2459282 59.7942907,27.2679947 C59.5956918,27.2719352 59.3955166,27.2632662 59.1914011,27.2632662 L59.1914011,26.6193958 C59.1984939,26.6178196 59.3545359,26.6091506 59.4364974,26.612303 C60.0086515,26.5878722 61.5233625,26.4507443 61.6738879,26.4436515 C61.674676,26.2080123 61.5927145,25.3891856 61.4697723,24.5522329 C61.3838704,23.9611646 61.2396497,22.9524081 61.0867601,21.9578371 C60.7557618,20.0246497 59.2158319,12.0105517 58.7587391,9.78577058 C58.6846585,9.42088441 58.6381611,9.21676883 58.6381611,9.21676883 C58.6381611,9.21676883 53.8536602,20.5629159 52.8890368,22.7979422 C52.7952539,23.0178196 52.7274781,23.1730736 52.7054116,23.2235114 C51.7825569,25.3765762 51.0086515,27.2955779 51.0086515,27.2955779 L49.6507706,27.2884851 L42.2143433,9.5635289 L42.0385989,9.15135727 C42.0385989,9.15135727 41.3868476,12.4731611 40.446655,17.1599387 C39.9501576,19.6920753 38.9193345,26.0235989 38.8491944,26.4420753 C39.442627,26.5232487 40.6074256,26.612303 40.9258144,26.6020578 C40.9991068,26.6020578 41.1228371,26.6052102 41.2158319,26.6052102 L41.2150438,27.2467163 C41.0818564,27.2632662 40.7705604,27.2648424 40.7587391,27.2648424 C39.6349212,27.2427758 38.8247636,27.1616025 37.6118914,27.1616025 C37.2935026,27.1616025 35.6077758,27.2419877 35.0135552,27.2609019 C34.7653065,27.2711471 34.4161821,27.2451401 34.3491944,27.2475044 L34.3499825,26.6130911 C34.4075131,26.6130911 34.5257268,26.5902364 34.5998074,26.5878722 C35.1380736,26.5665937 35.9647811,26.4901489 36.6661821,26.4058231 C36.7229247,26.0937391 37.3305429,22.9721103 37.5244133,21.8672067 C38.2699475,18.2073117 40.4702977,5.98007881 40.7469177,4.33296848 C40.9888616,2.55188266 41.2702102,0.33734676 41.294641,0.0930385289 C41.8762522,0.102495622 42.8794921,0.0812171629 42.8794921,0.0812171629" id="Fill-3"></path>
<path d="M32.9775219,27.265 C31.9687653,27.265 30.2554553,27.1081699 28.9708669,27.1073818 C27.7020403,27.1065937 25.977697,27.2602715 24.7380298,27.2594834 C24.6324256,27.2610595 24.4464361,27.238993 24.3447723,27.238993 L24.3455604,26.5943345 C24.5890806,26.589606 25.6845271,26.4973993 25.9910946,26.4769089 C26.3480998,26.4532662 26.67831,26.4359282 26.8248949,26.3925832 C26.8248949,26.3925832 26.8280473,25.6155254 26.8335639,24.4105342 C26.8493257,20.2446848 26.8824256,8.46981611 26.8438091,3.14232049 C26.8398687,2.58041156 26.8367163,1.156331 26.8367163,0.949851138 C26.6042294,0.926996497 26.2795359,0.898625219 26.047049,0.87025394 C25.7554553,0.85528021 24.5567688,0.748887916 24.3534413,0.738642732 L24.3463485,0.0931961471 C25.5347898,0.0939842382 27.2993257,0.206681261 28.7304991,0.207469352 C30.1002014,0.208257443 31.9561559,0.0979246935 33.3605342,0.0987127846 L33.3573818,0.770954466 C33.134352,0.783563923 32.5929335,0.815087566 32.5740193,0.816663748 C32.165,0.852915937 31.0191156,0.97349387 30.7377671,0.990831874 C30.736979,1.39275832 30.7361909,2.14144483 30.7346147,3.06351138 C30.7314623,7.83461471 30.7204291,20.315613 30.7164886,24.5185026 C30.7157005,25.0678021 30.7157005,25.5745447 30.7149124,25.8795359 C30.7149124,26.2010771 30.7164886,26.3941594 30.7204291,26.4067688 C30.72831,26.4296235 31.4462609,26.4926708 31.6117601,26.5029159 C31.9277846,26.5360158 33.2320753,26.5911821 33.273056,26.599063 L33.3597461,26.599063 L33.3581699,27.2445096 C33.272268,27.2437215 33.065,27.2657881 32.9775219,27.265" id="Fill-5"></path>
<path d="M75.7453327,2.06917688 L75.7327233,12.7525394 L83.1423555,12.7801226 C83.1762434,12.7801226 85.1031261,12.7257443 85.1496235,12.7257443 C85.267049,12.7273205 86.5894658,12.6571804 86.6399037,12.6406305 C86.6399037,12.6406305 86.6619702,12.5279335 86.6911296,12.4475482 C86.7990981,11.8013135 86.9346497,11.1873905 86.9701138,10.7074431 C86.9701138,10.7074431 87.0040018,10.5025394 87.0071541,10.3630473 L87.4279947,10.3559545 C87.4287828,10.4048161 87.4508494,10.5285464 87.4484851,10.7027145 C87.4421804,11.3457968 87.3909545,12.6847636 87.3925306,13.5595447 C87.3941068,14.8228546 87.4311471,15.9616462 87.4382399,16.5330123 C87.4445447,16.695359 87.4327233,16.9554291 87.4327233,16.9554291 L86.9701138,16.9554291 C86.963021,16.8947461 86.9551401,16.8316988 86.9448949,16.7662872 C86.8629335,16.0388792 86.7967338,15.5242557 86.6753678,14.782662 C86.6714273,14.7448336 86.6462084,14.6108581 86.6375394,14.5257443 C86.4011121,14.5107706 85.777732,14.4910683 85.4459457,14.4816112 C85.300937,14.4768827 83.4954203,14.4642732 81.4637215,14.4611208 C80.6299212,14.4587566 79.1357005,14.4950088 78.5004991,14.4934326 C77.7581173,14.4918564 76.5310595,14.5336252 75.730359,14.5619965 L75.7319352,24.25 L75.7634588,25.4983363 L80.2610946,25.5724168 L86.6666988,25.5700525 C86.6958581,25.5700525 88.1333363,25.5180385 88.5825482,25.5267075 C88.676331,25.5290718 88.8686252,25.5125219 88.8686252,25.5125219 C88.9111821,25.2004378 88.9639842,24.5660245 89.0167863,23.9599825 C89.0230911,23.8898424 89.1822855,22.2821366 89.1822855,21.8510508 L89.5779072,21.8471103 C89.5779072,22.2553415 89.4904291,27.3314361 89.4904291,27.3314361 C88.7685377,27.330648 86.5532137,27.3267075 83.8145972,27.2880911 C82.1572417,27.2652364 80.30838,27.2636602 78.4831611,27.2384413 C77.0039142,27.2171629 75.5412172,27.1675131 74.2085552,27.1690893 C72.31162,27.1698774 70.4525131,27.2841506 69.7314098,27.2849387 C69.5659107,27.2849387 69.274317,27.2731173 69.2112697,27.2731173 L69.2112697,26.6347636 L69.343669,26.6347636 C69.7889405,26.6331874 71.0987478,26.5614711 71.7812347,26.4448336 C71.7812347,26.3171629 71.826944,24.7370403 71.826944,24.7047285 C71.826944,24.7047285 71.8348249,4.64465849 71.835613,3.74465849 C71.8364011,2.77451839 71.818275,1.15971979 71.819063,1.01707531 C71.4321103,0.973730298 71.2949825,0.950875657 71.2138091,0.935901926 C70.8032137,0.881523643 69.9954203,0.816112084 69.5627583,0.786952715 C69.4398161,0.790105079 69.3050525,0.775131349 69.239641,0.764098074 C69.239641,0.764098074 69.2388529,0.136777583 69.2349124,0.12732049 C69.3326357,0.133625219 69.5351751,0.120227671 69.8984851,0.121803853 C70.6613573,0.124956217 72.0649475,0.23056042 73.7837741,0.233712785 C74.8626708,0.235288967 76.604352,0.187215412 77.8511121,0.173029772 C79.6282574,0.173817863 80.9774694,0.159632224 82.7002364,0.14938704 C85.5113573,0.13441331 87.9118827,0.117075306 88.8504991,0.113922942 C89.1247548,0.113134851 89.2744921,0.111558669 89.2744921,0.111558669 C89.2744921,0.160420315 89.2721278,0.218739054 89.2721278,0.283362522 C89.2721278,0.484325744 89.2634588,0.838178634 89.2666112,1.27241681 C89.2744921,2.62399299 89.3091681,4.74789842 89.3091681,5.44141856 L88.9143345,5.44299475 L88.910394,5.25227671 C88.8709895,4.77863398 88.7850876,3.44124343 88.6779072,2.3150613 C88.6668739,2.21497373 88.6495359,2.13537653 88.6495359,2.13537653 C88.4138967,2.12749562 87.4532137,2.09912434 87.4358757,2.0849387 C87.4201138,2.07154116 86.6548774,2.06050788 86.6383275,2.05341506 C86.6312347,2.0502627 84.115648,2.03371278 81.5251926,2.03056042 C79.7551401,2.02740806 78.0166112,2.03765324 76.9479597,2.03686515 C76.6863135,2.03607706 75.7453327,2.06917688 75.7453327,2.06917688" id="Fill-7"></path>
</g>
</g>
</g>
</g>
</g>
</svg>