<svg width="119px" height="51px" viewBox="0 0 119 51" version="1.1" xmlns="http://www.w3.org/2000/svg" xmlns:xlink="http://www.w3.org/1999/xlink">
    <!-- Generator: Sketch 46.2 (44496) - http://www.bohemiancoding.com/sketch -->
    <desc>Created with Sketch.</desc>
    <defs>
        <filter x="-1.7%" y="-39.0%" width="103.3%" height="175.6%" filterUnits="objectBoundingBox" id="filter-1">
            <feOffset dx="0" dy="0" in="SourceAlpha" result="shadowOffsetOuter1"></feOffset>
            <feGaussianBlur stdDeviation="5" in="shadowOffsetOuter1" result="shadowBlurOuter1"></feGaussianBlur>
            <feColorMatrix values="0 0 0 0 0   0 0 0 0 0.0941176471   0 0 0 0 0.203921569  0 0 0 1 0" type="matrix" in="shadowBlurOuter1" result="shadowMatrixOuter1"></feColorMatrix>
            <feMerge>
                <feMergeNode in="shadowMatrixOuter1"></feMergeNode>
                <feMergeNode in="SourceGraphic"></feMergeNode>
            </feMerge>
        </filter>
    </defs>
    <g id="Homepage-(Masami)" stroke="none" stroke-width="1" fill="none" fill-rule="evenodd">
        <g id="HP-V3" transform="translate(-405.000000, -620.000000)" fill="#FFFFFF">
            <g id="Section:-Header" transform="translate(-102.000000, -5.000000)">
                <g id="Page-1" filter="url(#filter-1)" transform="translate(352.000000, 634.000000)">
                    <g id="travel" transform="translate(164.000000, 0.000000)">
                        <polygon id="Fill-70" points="85.2434151 8.64614711 92.0722242 8.64614711 92.0722242 15.3977233 93.3213485 15.3977233 93.3213485 8.64614711 100.180105 8.64614711 100.180105 7.51366025 93.3213485 7.51366025 93.3213485 0.951225919 92.0722242 0.951225919 92.0722242 7.51366025 85.2434151 7.51366025"></polygon>
                        <path d="M60.9926708,32.3311996 C57.0719177,32.3311996 54.4381173,30.058345 54.4381173,26.6758581 L54.4381173,17.527697 L57.9017776,17.527697 L57.9017776,26.6758581 C57.9017776,28.6255954 59.5662259,29.3175394 60.9926708,29.3175394 C62.9258581,29.3175394 64.1269089,28.3064186 64.1269089,26.6758581 L64.1269089,17.527697 L67.5905692,17.527697 L67.5905692,26.6758581 C67.5905692,30.1119352 65.0009019,32.3311996 60.9926708,32.3311996" id="Fill-71"></path>
                        <path d="M45.5590893,32.3311996 C42.6171454,32.3311996 40.0605779,31.4130736 37.7443783,29.5232312 L37.5970053,29.4034413 L39.5727496,27.0131611 L39.7177583,27.1290105 C41.0661821,28.2079072 42.9528722,29.4459982 45.6024343,29.4459982 C46.9886865,29.4459982 48.6074256,28.9723555 48.6074256,27.6404816 C48.6074256,26.4985377 47.425289,26.1848774 45.2438529,26.0067688 C42.5217863,25.8357531 38.4040105,25.5764711 38.4040105,21.724282 C38.4040105,18.3134238 41.4909632,17.0989755 44.3801051,17.0989755 C47.2290543,17.0989755 49.7627671,18.1321629 51.0670578,19.0179772 L51.2380736,19.1338266 L49.2355342,21.5761208 L49.0905254,21.4689405 C48.6294921,21.1253327 46.9185464,20.0054553 44.2942032,20.0054553 C43.1112785,20.0054553 41.8463923,20.4065937 41.8463923,21.5319877 C41.8463923,22.5415324 43.4146935,22.667627 45.0759895,22.8008144 L45.3392119,22.8228809 C47.8469177,22.9915324 52.0498074,23.273669 52.0498074,27.341007 C52.0498074,30.5114974 49.683958,32.3311996 45.5590893,32.3311996" id="Fill-72"></path>
                        <polygon id="Fill-73" points="99.8446147 31.9024781 87.3131786 31.9024781 87.3131786 17.527697 99.3520578 17.527697 99.3520578 20.5626357 90.7555604 20.5626357 90.7555604 22.9079947 95.9214974 22.9079947 95.9214974 25.921655 90.7555604 25.921655 90.7555604 28.8888179 99.8446147 28.8888179"></polygon>
                        <polygon id="Fill-74" points="31.7657618 31.9026357 35.2081436 31.9026357 35.2081436 17.5278546 31.7657618 17.5278546"></polygon>
                        <polygon id="Fill-75" points="28.8309895 31.9024781 16.2995534 31.9024781 16.2995534 17.527697 28.3384326 17.527697 28.3384326 20.5626357 19.7427233 20.5626357 19.7427233 22.9079947 24.9078722 22.9079947 24.9078722 25.921655 19.7427233 25.921655 19.7427233 28.8888179 28.8309895 28.8888179"></polygon>
                        <polygon id="Fill-76" points="14.2955954 31.9024781 2.62160245 31.9024781 2.62160245 17.527697 6.06477233 17.527697 6.06477233 28.8888179 14.2955954 28.8888179"></polygon>
                        <path d="M81.6369527,26.1611559 C83.3888792,25.3257793 84.3873905,23.8678109 84.3873905,22.1324343 C84.3873905,21.0078284 83.958669,19.9344483 83.1784588,19.1077408 C82.1626095,18.044606 80.7440455,17.5276182 78.8400175,17.5276182 L70.891331,17.5276182 L70.891331,31.9023993 L74.3337128,31.9023993 L74.3337128,26.7585289 L78.1929947,26.7585289 L81.0222417,31.9023993 L84.9768827,31.9023993 L81.6369527,26.1611559 Z M79.1615587,23.7866375 L74.3337128,23.7866375 L74.3337128,20.4979335 L78.9471979,20.4979335 C79.4862522,20.4979335 80.0442207,20.563345 80.4855517,21.0440806 C80.7724168,21.3301576 80.9237303,21.7068651 80.9237303,22.1324343 C80.9237303,23.0757793 80.1663748,23.7866375 79.1615587,23.7866375 L79.1615587,23.7866375 Z" id="Fill-77"></path>
                        <polygon id="Fill-78" points="88.1379159 15.3287653 76.4812609 15.3287653 76.4812609 0.976050788 79.9197023 0.976050788 79.9197023 12.3190455 88.1379159 12.3190455"></polygon>
                        <polygon id="Fill-79" points="74.1231349 15.3287653 61.610613 15.3287653 61.610613 0.976050788 73.6305779 0.976050788 73.6305779 4.00704904 65.0482662 4.00704904 65.0482662 6.34767951 70.2063222 6.34767951 70.2063222 9.3573993 65.0482662 9.3573993 65.0482662 12.3190455 74.1231349 12.3190455"></polygon>
                        <polygon id="Fill-80" points="53.5924168 15.3287653 50.6977583 15.3287653 44.0376007 0.976050788 47.9244658 0.976050788 52.209317 10.9800788 56.49338 0.976050788 60.2517863 0.976050788"></polygon>
                        <polygon id="Fill-81" points="9.11027145 15.3287653 5.67261821 15.3287653 5.67261821 4.00704904 0.600464098 4.00704904 0.600464098 0.976050788 14.1611471 0.976050788 14.1611471 4.00704904 9.11027145 4.00704904"></polygon>
                        <path d="M40.3267951,0.976050788 L37.4534151,0.976050788 L30.7932574,15.3287653 L34.4452715,15.3287653 L35.7077933,12.375 L41.9226795,12.375 L43.207268,15.3287653 L46.9869527,15.3287653 L40.3267951,0.976050788 Z M36.9183012,9.57964098 L38.8152364,5.15293345 L40.7121716,9.57964098 L36.9183012,9.57964098 Z" id="Fill-82"></path>
                        <path d="M26.5895009,9.59658494 C28.338275,8.7619965 29.3359982,7.30718039 29.3359982,5.57416813 C29.3359982,4.45113835 28.9072767,3.37854641 28.1278546,2.55341506 C27.1151576,1.49185639 25.6981699,0.976444834 23.7965061,0.976444834 L15.8604291,0.976444834 L15.8604291,15.3283713 L19.2980823,15.3283713 L19.2980823,10.1923818 L23.1502715,10.1923818 L25.9755779,15.3283713 L29.9247023,15.3283713 L26.5895009,9.59658494 Z M24.1180473,7.22521891 L19.2980823,7.22521891 L19.2980823,3.94281961 L23.9036865,3.94281961 C24.4411646,3.94281961 24.998345,4.00744308 25.439676,4.48739054 C25.7257531,4.77267951 25.8770665,5.14859895 25.8770665,5.57416813 C25.8770665,6.51514886 25.1204991,7.22521891 24.1180473,7.22521891 L24.1180473,7.22521891 Z" id="Fill-83"></path>
                    </g>
                </g>
            </g>
        </g>
    </g>
</svg>