<svg width="164px" height="56px" viewBox="0 0 164 56" version="1.1" xmlns="http://www.w3.org/2000/svg" xmlns:xlink="http://www.w3.org/1999/xlink">
    <desc>Created with Sketch.</desc>
    <defs>
        <filter x="-1.7%" y="-39.0%" width="103.3%" height="175.6%" filterUnits="objectBoundingBox" id="filter-1">
            <feOffset dx="0" dy="0" in="SourceAlpha" result="shadowOffsetOuter1"></feOffset>
            <feGaussianBlur stdDeviation="5" in="shadowOffsetOuter1" result="shadowBlurOuter1"></feGaussianBlur>
            <feColorMatrix values="0 0 0 0 0   0 0 0 0 0.0941176471   0 0 0 0 0.203921569  0 0 0 1 0" type="matrix" in="shadowBlurOuter1" result="shadowMatrixOuter1"></feColorMatrix>
            <feMerge>
                <feMergeNode in="shadowMatrixOuter1"></feMergeNode>
                <feMergeNode in="SourceGraphic"></feMergeNode>
            </feMerge>
        </filter>
    </defs>
    <g id="Homepage-(Masami)" stroke="none" stroke-width="1" fill="none" fill-rule="evenodd">
        <g id="HP-V3" transform="translate(-531.000000, -623.000000)" fill="#FFFFFF">
            <g id="Section:-Header" transform="translate(-102.000000, -5.000000)">
                <g id="Page-1" filter="url(#filter-1)" transform="translate(352.000000, 634.000000)">
                    <g id="weddings" transform="translate(289.000000, 3.000000)">
                        <path d="M120.606077,34.6023468 C121.18296,34.5684588 121.76063,34.5369352 122.338301,34.5014711 C123.084623,34.4549737 123.815184,34.3154816 124.521313,34.0751138 C125.027268,33.90331 125.522977,33.6676708 125.89338,33.2830823 C126.972277,32.1624168 126.597933,30.4364974 125.118687,29.8714361 C124.428319,29.6074256 123.710368,29.4742382 122.985324,29.385972 C122.212995,29.2921891 121.435937,29.2378109 120.661243,29.1684588 C119.568949,29.0715236 118.475867,28.9887741 117.385937,28.8721366 C117.075429,28.8390368 116.80669,28.8957793 116.538739,29.0250263 C116.421313,29.0817688 116.302312,29.1345709 116.189615,29.1999825 C115.351874,29.6870228 114.69303,30.3198599 114.510193,31.3215236 C114.36676,32.1064623 114.611068,32.7802802 115.19268,33.3075131 C115.719912,33.7843082 116.370876,34.0475306 117.055727,34.2161821 C118.220525,34.5022592 119.405026,34.6157443 120.606077,34.6023468 L120.606077,34.6023468 Z M115.589089,16.7875482 C115.622977,17.1035727 115.635587,17.4235377 115.693117,17.7364098 C115.938214,19.0801051 116.67035,20.0801926 117.89268,20.6901751 C119.018074,21.2520841 120.205727,21.2828196 121.415447,21.0061996 C122.235849,20.8194221 122.945919,20.4190718 123.504676,19.8043608 C124.280158,18.949282 124.578056,17.8885114 124.570963,16.7615412 C124.566235,15.955324 124.383398,15.1703853 123.955464,14.457951 C123.47,13.6493695 122.804063,13.0614536 121.926918,12.709965 C121.011944,12.3427145 120.068599,12.2891243 119.104764,12.4380736 C117.908441,12.6224869 116.957215,13.1962172 116.289702,14.2183713 C115.780595,14.9985814 115.595394,15.8646935 115.589089,16.7875482 L115.589089,16.7875482 Z M119.319124,37.3456918 C119.207215,37.322049 119.095306,37.2810683 118.981821,37.2779159 C117.49627,37.2298424 116.041454,37.0052364 114.638651,36.5040105 C113.670088,36.1580385 112.774816,35.6930648 112.074203,34.9081261 C111.487075,34.2500701 111.156077,33.4935026 111.059142,32.6155692 C110.98979,31.9914011 111.051261,31.3956042 111.274291,30.8108406 C111.603713,29.9502452 112.194781,29.3032224 112.945832,28.797268 C113.249247,28.5931524 113.577881,28.4276532 113.897058,28.2463923 C114.007391,28.1825569 114.122452,28.1258144 114.250911,28.0580385 C113.960893,27.8145184 113.694518,27.5899124 113.428932,27.3645184 C112.627443,26.6867601 112.483222,25.4179335 112.932434,24.4998074 C113.25634,23.8378109 113.786725,23.3752014 114.369124,22.9606655 C114.599247,22.7967426 114.844343,22.6525219 115.12648,22.4712609 C114.907391,22.2955166 114.704851,22.1276532 114.497583,21.9660946 C113.30993,21.0463923 112.523415,19.857951 112.218424,18.3905254 C111.781821,16.283958 112.091541,14.3066375 113.467548,12.5933275 C114.25958,11.6074256 115.289615,10.9162697 116.466235,10.4418389 C117.227531,10.1336953 118.018774,9.93036778 118.828144,9.83737303 C119.445219,9.76644483 120.067023,9.73886165 120.700648,9.78141856 C121.87648,9.86022767 122.967986,10.2195972 124.071313,10.5750263 C125.281821,10.9651313 126.510455,11.0415762 127.725692,10.5931524 C128.111068,10.4505079 128.468862,10.2345709 128.801436,10.0698599 C129.45634,10.7310683 130.102574,11.3828196 130.771664,12.0582137 C129.771576,12.8179335 128.581559,13.246655 127.248109,13.3814186 C127.382084,13.6919264 127.501874,13.9598774 127.613783,14.2301926 C127.97394,15.1057618 128.166235,16.0223117 128.131559,16.9632925 C128.078757,18.4283538 127.67289,19.7925394 126.716147,20.9321191 C125.840578,21.9763398 124.749072,22.7352715 123.457391,23.1931524 C122.573152,23.5068126 121.669212,23.6935902 120.728231,23.7716112 C119.600473,23.864606 118.515271,23.7274781 117.444256,23.4012084 C117.311856,23.3602277 117.208616,23.36338 117.080158,23.4398249 C116.731821,23.6494571 116.403975,23.8709107 116.196708,24.2365849 C115.901173,24.7590893 115.991016,25.3667075 116.636462,25.6062872 C116.987951,25.7371103 117.360718,25.8364098 117.731909,25.8821191 C118.691804,25.9979685 119.656427,26.0838704 120.620263,26.1697723 C121.313783,26.2304553 122.011243,26.2580385 122.704764,26.322662 C123.90345,26.4337828 125.106865,26.5354466 126.259842,26.9160946 C127.200035,27.2273905 128.081121,27.6474431 128.765972,28.399282 C129.448459,29.1471804 129.797583,30.0290543 129.847233,31.0315061 C129.883485,31.7801926 129.85275,32.5225744 129.570613,33.2334326 C129.278231,33.9679335 128.855814,34.6015587 128.264746,35.1414011 C127.289089,36.032732 126.115622,36.5055867 124.868862,36.8302802 C123.861681,37.0927145 122.836375,37.2629422 121.790578,37.278704 C121.701524,37.2794921 121.613257,37.3228371 121.524991,37.3456918 L119.319124,37.3456918 Z" id="Fill-45"></path>
                        <path d="M0.78234676,9.8821366 C1.84942207,9.88371278 2.91649737,9.88450088 3.98357268,9.88765324 C4.35633975,9.88844133 4.3784063,9.9089317 4.47297723,10.2588441 C5.26500876,13.1787215 6.05704028,16.0985989 6.85064799,19.0176883 C7.27227671,20.5694396 7.6962697,22.1188266 8.12105079,23.6690018 C8.14863398,23.7706655 8.18803853,23.8676007 8.29206655,23.9850263 C8.34486865,23.8415937 8.40791594,23.7013135 8.44968476,23.5555166 C9.15581436,21.0880035 9.85879159,18.6204904 10.5609807,16.1529772 C11.1016112,14.2544658 11.6390893,12.3551664 12.1789317,10.4558669 C12.1923292,10.4101576 12.2104553,10.3660245 12.2254291,10.3218914 C12.3609807,9.88844133 12.3609807,9.88765324 12.8109807,9.88686515 C13.4989842,9.88607706 14.1869877,9.89711033 14.8742032,9.88134851 C15.1224518,9.87583187 15.2288441,9.96725044 15.2950438,10.2013135 C15.8640455,12.2148862 16.4432925,14.2253065 17.019387,16.2365149 C17.728669,18.7134851 18.437951,21.1912434 19.1488091,23.6674256 C19.1803327,23.7761821 19.2268301,23.8794221 19.3395271,23.9858144 C19.3702627,23.8920315 19.4057268,23.7998249 19.4317338,23.7052539 C20.2269177,20.797986 21.0213135,17.8899299 21.8141331,14.982662 C22.2507356,13.3859895 22.6881261,11.7901051 23.1152715,10.1918564 C23.1696497,9.9885289 23.250035,9.88371278 23.4714886,9.88528897 C24.4794571,9.8908056 25.4874256,9.88686515 26.494606,9.88922942 C26.5631699,9.89001751 26.6317338,9.91050788 26.7467951,9.93021016 C26.7018739,10.1130473 26.6687741,10.2824869 26.6191243,10.4464098 C25.9192995,12.7665499 25.2194746,15.08669 24.5157093,17.406042 C24.0767426,18.8545534 23.6283187,20.2999124 23.1901401,21.7492119 C22.539965,23.8991243 21.8960946,26.0514011 21.2474956,28.2013135 C21.1143082,28.6434326 20.9692995,29.0808231 20.8376883,29.5237303 C20.7801576,29.7183888 20.6840105,29.8121716 20.4625569,29.8082312 C19.6925919,29.7964098 18.9210508,29.7971979 18.1510858,29.8074431 C17.9414536,29.8105954 17.8539755,29.7183888 17.8027496,29.5363398 C17.2991594,27.7379159 16.793993,25.9402802 16.2856743,24.1434326 C15.8222767,22.5049912 15.3533625,20.8681261 14.8883888,19.2312609 C14.5684238,18.1058669 14.2516112,16.9788967 13.9300701,15.8535026 C13.8883012,15.7084939 13.8307706,15.5666375 13.75669,15.3570053 C13.6928546,15.4972855 13.6455692,15.5745184 13.6219264,15.657268 C13.0615937,17.6361646 12.5052014,19.6166375 11.9448687,21.5947461 C11.4712259,23.2670753 10.9936427,24.9378284 10.5184238,26.6101576 C10.2567776,27.530648 9.99434326,28.4511384 9.73584939,29.3724168 C9.62078809,29.7830123 9.60108581,29.8027145 9.18103327,29.8035026 C8.49302977,29.8042907 7.80502627,29.7940455 7.11781086,29.8090193 C6.87350263,29.815324 6.75686515,29.7333625 6.68830123,29.5000876 C6.36754816,28.4109457 6.03182137,27.3273205 5.70397548,26.2405429 C5.42735552,25.3232049 5.15467601,24.4050788 4.87963222,23.4877408 C4.3878634,21.8461471 3.89609457,20.2037653 3.40117338,18.5621716 C3.07726795,17.4864273 2.7462697,16.4130473 2.42315236,15.3380911 C1.94005254,13.7303853 1.46325744,12.1203152 0.979369527,10.5133975 C0.928931699,10.3455342 0.84854641,10.1871278 0.78234676,10.0247811 L0.78234676,9.8821366 Z" id="Fill-46"></path>
                        <path d="M59.8414974,20.0818476 C59.8414974,18.7539142 59.7981524,17.4244046 59.8604116,16.0996235 C59.890359,15.4573292 59.6011296,15.082986 59.1574343,14.7385902 C59.1014799,14.6944571 59.0400088,14.6574168 58.9856305,14.6132837 C57.5741594,13.4618827 56.0050701,12.7407793 54.1365061,12.876331 C53.7873818,12.902338 53.4319527,12.9709019 53.1001664,13.0820228 C51.8321278,13.5075919 51.0653152,14.459606 50.5341419,15.6291331 C49.9375569,16.9452452 49.7799387,18.3559282 49.7444746,19.7768564 C49.7279247,20.4230911 49.80831,21.0732662 49.8745096,21.7187128 C50.0226708,23.1561909 50.4616375,24.4888529 51.3829159,25.6284326 C51.8053327,26.150937 52.3278371,26.5465587 52.9393958,26.8326357 C53.6273993,27.1557531 54.3492907,27.1959457 55.0893082,27.1754553 C55.9475394,27.1526007 56.7506042,26.9272067 57.4953503,26.5197636 C58.2653152,26.099711 58.9635639,25.5756305 59.6011296,24.9680123 C59.7847548,24.7938441 59.847014,24.6251926 59.8454378,24.3840368 C59.8375569,22.9504991 59.8414974,21.5153853 59.8414974,20.0818476 M59.8414974,12.2970841 L59.8414974,11.8045271 L59.8414974,1.13377408 C59.8414974,0.633336252 59.8422855,0.632548161 60.3498161,0.632548161 C61.2632137,0.632548161 62.1758231,0.63176007 63.0884326,0.632548161 C63.5305517,0.633336252 63.5321278,0.634912434 63.5321278,1.09121716 C63.5329159,5.79848511 63.5321278,10.5057531 63.5329159,15.2122329 C63.5329159,18.7578546 63.5187303,22.3026883 63.5463135,25.8475219 C63.5557706,27.0997986 63.6944746,28.3465587 64.0822154,29.5515499 C64.1034939,29.6169615 64.1058581,29.6878897 64.1208319,29.7824606 L60.3277496,29.7824606 C60.0298511,29.085 59.9675919,28.3300088 59.8249475,27.5151226 C59.6342294,27.7011121 59.4963135,27.8406042 59.353669,27.9745797 C58.4828284,28.7957706 57.5048074,29.4467338 56.3644396,29.8328984 C55.5400963,30.1126708 54.6881699,30.2647723 53.8196935,30.2245797 C52.1568214,30.1473468 50.6539317,29.630359 49.3575219,28.5451576 C47.7915849,27.2337741 46.9365061,25.5204641 46.4675919,23.5786077 C46.2461384,22.6581173 46.1027058,21.7258056 46.1011296,20.7745797 C46.1011296,20.4680123 46.0309895,20.1614448 46.0435989,19.8564536 C46.1145271,18.102951 46.2942119,16.3659982 46.953056,14.7173117 C47.3817776,13.6423555 47.9673292,12.6753678 48.7916725,11.8415674 C49.7397461,10.8840368 50.855683,10.2693257 52.1607618,9.99034151 C53.832303,9.63491243 55.4478897,9.85400175 57.0185552,10.4994483 C58.0367688,10.9179247 58.921007,11.5428809 59.8414974,12.2970841" id="Fill-47"></path>
                        <path d="M79.5460595,20.0780648 C79.5460595,18.8108144 79.5539405,17.5419877 79.5436953,16.2739492 C79.5334501,15.1966287 79.6863398,15.5095009 78.8943082,14.8088879 C78.1810858,14.1768389 77.4032399,13.6543345 76.5237303,13.2807793 C75.5945709,12.8875219 74.6204904,12.7653678 73.6369527,12.896979 C72.2971979,13.0758757 71.3144483,13.8505692 70.6059545,14.9712347 C69.8210158,16.2132662 69.5246935,17.6113398 69.4537653,19.0527583 C69.4143608,19.8644921 69.4624343,20.6848949 69.5176007,21.4982049 C69.6019264,22.727627 69.9384413,23.8900613 70.5767951,24.9547723 C71.1836252,25.9674694 72.0205779,26.6877846 73.1577933,27.0447898 C73.6779335,27.2079247 74.210683,27.1732487 74.7418564,27.1732487 C75.4889667,27.1724606 76.1895797,26.9754378 76.8618214,26.6649299 C77.7736427,26.2440893 78.5412434,25.6159807 79.2962347,24.968958 C79.4814361,24.8105517 79.5523643,24.6261384 79.5507881,24.3802539 C79.541331,22.9467163 79.5460595,21.5116025 79.5460595,20.0780648 M83.7930823,29.7802539 C83.6535902,29.789711 83.5503503,29.8031086 83.4455342,29.8031086 C82.414711,29.8046848 81.3830998,29.8054729 80.3514886,29.8038967 C79.9842382,29.8031086 79.9448336,29.7920753 79.8660245,29.4303415 C79.740718,28.855035 79.6485114,28.2718476 79.541331,27.6918126 C79.5358144,27.6610771 79.5184764,27.6319177 79.4971979,27.5799037 C79.2457968,27.7934764 78.9999124,27.9920753 78.7666375,28.2032837 C77.8571804,29.0268389 76.8247811,29.6360333 75.6371278,29.9473292 C74.7670753,30.1758757 73.8859895,30.2901489 72.9725919,30.1821804 C72.090718,30.0781524 71.2450963,29.8716725 70.4617338,29.4752627 C69.9289842,29.2057356 69.4119965,28.8707968 68.958056,28.482268 C67.8318739,27.5168564 67.0422067,26.3087128 66.534676,24.9098511 C66.1737303,23.9152802 65.9239054,22.892338 65.833275,21.844965 C65.7505254,20.8811296 65.7103327,19.9031086 65.7615587,18.937697 C65.8380035,17.5057356 66.0988616,16.0974168 66.6678634,14.7671191 C67.0603327,13.848993 67.5615587,13.0033713 68.2345884,12.2499562 C69.4151489,10.9314799 70.8857268,10.1764886 72.6084939,9.90380911 C73.1869527,9.81239054 73.7748687,9.80529772 74.3738179,9.8604641 C75.3707531,9.95188266 76.3022767,10.2182574 77.1833625,10.6658932 C77.9013135,11.0307793 78.5577933,11.4973292 79.1661996,12.0277145 C79.2190018,12.0742119 79.2749562,12.118345 79.333275,12.1585377 C79.3805604,12.1900613 79.4333625,12.213704 79.5460595,12.2735989 L79.5460595,6.45118214 L79.5460595,0.665017513 L83.1744308,0.665017513 L83.1744308,1.20485989 C83.1744308,9.2426007 83.1641856,17.2795534 83.1838879,25.3172942 C83.1870403,26.7587128 83.3304729,28.1961909 83.7505254,29.5887478 C83.7639229,29.633669 83.7710158,29.6793783 83.7930823,29.7802539" id="Fill-48"></path>
                        <path d="M40.276979,17.9746497 C40.276979,17.9013573 40.2809194,17.855648 40.276979,17.8099387 C40.1745271,16.7633538 39.913669,15.7601138 39.3982574,14.8404116 C39.0909019,14.2919002 38.6960683,13.805648 38.1822329,13.425 C37.3492207,12.8071366 36.4058757,12.5801664 35.3837215,12.5825306 C33.9958932,12.5864711 32.9225131,13.2137916 32.107627,14.2792907 C31.4684851,15.1154553 31.1067513,16.0974168 30.8860858,17.1258757 C30.8277671,17.3961909 30.7978196,17.6720228 30.7505342,17.9746497 L40.276979,17.9746497 Z M30.6449299,20.5501313 C30.6496585,21.4312172 30.7434413,22.2264011 30.9444046,23.0081874 C31.2659457,24.2620403 31.8357356,25.3724606 32.8255779,26.2385727 C33.4481699,26.7831436 34.1755779,27.107049 34.9849475,27.2394483 C36.2088529,27.4396235 37.3917776,27.2788529 38.511655,26.7461033 C39.376979,26.3347198 40.113056,25.74838 40.7198862,25.003634 C40.9279422,24.7490806 41.1493958,24.5063485 41.3826708,24.2376095 C42.1613047,24.8452277 42.9107793,25.4299912 43.6634063,26.0171191 C43.6295184,26.1093257 43.6216375,26.1715849 43.5885377,26.215718 C42.578993,27.5428634 41.3960683,28.672986 39.8577145,29.3625657 C38.8395009,29.8196585 37.7716375,30.1246497 36.642303,30.1632662 C36.3120928,30.1742995 35.9818827,30.2326182 35.6524606,30.2271016 C33.9612172,30.2010946 32.3708494,29.789711 30.9436165,28.8660683 C29.5557881,27.9668564 28.5588529,26.7193082 27.9157706,25.2014448 C27.4334588,24.0642294 27.1387128,22.8742119 27.0299562,21.637697 C26.9353853,20.5619527 26.9409019,19.4901489 27.0268039,18.4136165 C27.1032487,17.4647548 27.3034238,16.5458406 27.598958,15.6450525 C27.9827583,14.4755254 28.5643695,13.4179072 29.3737391,12.4800788 C30.5401138,11.1285026 32.0020228,10.2970665 33.7413398,9.96055166 C35.4278546,9.63428196 37.0875744,9.76825744 38.6929159,10.3924256 C39.3572767,10.6501313 39.9664711,11.0150175 40.5291681,11.4579247 C41.4764536,12.205035 42.1802189,13.1460158 42.7145447,14.2146673 C43.193704,15.172986 43.4994834,16.1904116 43.6862609,17.2448774 C43.8557005,18.2031961 43.9219002,19.1686077 43.8990455,20.140324 C43.8903765,20.5138792 43.8627933,20.5485552 43.4916025,20.5493433 C42.2227758,20.5517075 40.9539492,20.5501313 39.6851226,20.5501313 L31.112268,20.5501313 L30.6449299,20.5501313 Z" id="Fill-49"></path>
                        <path d="M106.156427,29.7745009 L106.156427,29.2590893 C106.156427,24.9190718 106.161156,20.5798424 106.150123,16.2398249 C106.148546,15.7228371 106.096532,15.2003327 106.008266,14.6904378 C105.802574,13.5051489 104.974291,12.8975306 103.812644,12.796655 C102.121401,12.6500701 100.678406,13.2679335 99.3567776,14.2380736 C98.8051138,14.6431524 98.2967951,15.1049737 97.7632574,15.5344834 C97.5410158,15.7125919 97.4700876,15.9301051 97.4708757,16.2138179 C97.4779685,20.5538354 97.4756042,24.8930648 97.4756042,29.2330823 L97.4756042,29.7138179 C97.2021366,29.8202102 94.3854991,29.8493695 93.9165849,29.7634676 C93.830683,29.5065499 93.8094046,10.6971804 93.9016112,10.2692469 L97.4700876,10.2692469 L97.4700876,13.081944 C97.7585289,12.8392119 97.9823468,12.6532224 98.2022242,12.4632925 C99.4820841,11.3623292 100.884098,10.4828196 102.545394,10.0808932 C103.260193,9.90830123 103.986813,9.7869352 104.720525,9.82161121 C105.877443,9.8752014 107.003625,10.0635552 107.967461,10.7854466 C108.559317,11.2283538 108.998284,11.7934151 109.28042,12.4727496 C109.653187,13.3695972 109.785587,14.3129422 109.784799,15.2791419 C109.784011,19.9399124 109.784799,24.5991068 109.784799,29.2590893 L109.784799,29.7745009 L106.156427,29.7745009 Z" id="Fill-50"></path>
                        <path d="M145.701497,12.6527496 C145.009553,13.4282312 144.327067,14.1934676 143.629606,14.9744658 C143.390026,14.7727145 143.152811,14.5835727 142.926629,14.3818214 C141.900534,13.4652715 140.713669,12.8734151 139.341602,12.7481086 C138.436086,12.6661471 137.512443,12.6464448 136.632933,12.9545884 C135.869273,13.2209632 135.215946,13.64338 134.981883,14.4771804 C134.740727,15.3385639 135.014982,16.2606305 135.896068,16.854063 C136.524177,17.2764799 137.236611,17.5018739 137.953774,17.7052014 C139.250184,18.0724518 140.560779,18.3900525 141.846944,18.7896147 C142.842303,19.0993345 143.789588,19.5335727 144.624177,20.1845359 C145.653424,20.9868126 146.265771,22.0160595 146.437574,23.3195622 C146.560517,24.2502977 146.515595,25.1589667 146.216909,26.0495096 C145.86148,27.1126445 145.234159,27.9803327 144.327855,28.6470578 C143.303336,29.3988967 142.144842,29.8291944 140.901235,30.0104553 C140.086349,30.1310333 139.257277,30.224028 138.43451,30.2177233 C136.862268,30.2043257 135.335736,29.9174606 133.896681,29.2365499 C133.121988,28.8692995 132.39458,28.4374256 131.770412,27.8463573 C131.412618,27.5082662 131.063494,27.160718 130.699396,26.8076532 C130.810517,26.6870753 130.87514,26.6003853 130.954737,26.5333975 C131.478818,26.0936427 132.008415,25.6586165 132.533284,25.2188616 C132.64204,25.1274431 132.737399,25.0210508 132.845368,24.928056 C133.076278,24.7270928 133.1212,24.7357618 133.34817,24.9414536 C133.759553,25.3134326 134.150447,25.7161471 134.598082,26.0392644 C135.459466,26.6626445 136.413056,27.1063398 137.482496,27.2418914 C138.603949,27.3837478 139.727767,27.4058144 140.826366,27.091366 C141.529343,26.8904028 142.176366,26.572014 142.590114,25.9202627 C143.233984,24.9067776 142.9881,23.265972 141.910779,22.5228021 C141.177067,22.0176357 140.360604,21.7181611 139.514982,21.4785814 C138.150797,21.093993 136.775578,20.7432925 135.420061,20.3271804 C134.465683,20.0347986 133.571988,19.5847986 132.816208,18.9157093 C132.131357,18.3096673 131.711305,17.5326095 131.524527,16.6404904 C131.266821,15.4055517 131.312531,14.1958319 131.926454,13.0594046 C132.452898,12.0829597 133.236261,11.3571278 134.205613,10.839352 C135.283722,10.2632574 136.437487,9.93619965 137.662968,9.88024518 C138.064107,9.86211909 138.466033,9.80616462 138.865595,9.82113835 C140.477242,9.88260946 142.032145,10.1907531 143.480657,10.9354991 C144.282933,11.3484588 145.24204,12.0782312 145.701497,12.6527496" id="Fill-51"></path>
                        <path d="M90.4039054,29.7767863 L86.7684413,29.7767863 C86.7574081,29.6412347 86.7384939,29.5159282 86.7384939,29.3914098 C86.7369177,23.145 86.7369177,16.8993783 86.7369177,10.6529685 C86.7377058,10.2415849 86.7400701,10.2392207 87.1530298,10.2384326 C88.1129247,10.2368564 89.0728196,10.2368564 90.0327145,10.2392207 C90.1477758,10.2392207 90.2628371,10.2541944 90.4039054,10.2636515 L90.4039054,29.7767863 Z" id="Fill-52"></path>
                        <path d="M88.6021716,4.6171366 C89.4998074,4.57457968 90.4675832,5.43517513 90.4297548,6.48570053 C90.3919264,7.53149737 89.6125044,8.31801226 88.5548862,8.31091944 C87.5264273,8.30225044 86.7194221,7.45584063 86.7265149,6.40137478 C86.7312434,5.60225044 87.5035727,4.55802977 88.6021716,4.6171366" id="Fill-53"></path>
                        <path d="M8.79218914,5.83773205 C8.63851138,6.32004378 8.48404553,6.8039317 8.33115587,7.28624343 C8.2491944,7.54552539 8.16644483,7.80480736 8.08921191,8.06645359 C8.04035026,8.23431699 7.95050788,8.32100701 7.75978984,8.31943082 C7.56513135,8.31785464 7.45322242,8.24771454 7.39490368,8.05857268 C7.18605954,7.38002627 6.9693345,6.70384413 6.75654991,6.02608581 C6.73921191,5.97091944 6.71950963,5.91654116 6.65330998,5.85428196 C6.64070053,5.92284588 6.61863398,5.99062172 6.61784588,6.05918564 C6.61548161,6.68808231 6.61863398,7.31619089 6.61548161,7.94429947 C6.61311734,8.28948336 6.55085814,8.33676883 6.22301226,8.31706655 C6.03781086,8.30682137 5.97555166,8.21776708 5.97633975,8.0475394 C5.97949212,7.71496497 5.97633975,7.38317863 5.97633975,7.05139229 C5.97633975,6.35156743 5.97318739,5.65253065 5.97791594,4.95349387 C5.98028021,4.64850263 6.00549912,4.62958844 6.29945709,4.61697898 C6.91889667,4.59176007 6.92047285,4.59097198 7.10094571,5.17573555 C7.26408056,5.70769702 7.42327496,6.24044658 7.58640981,6.77240806 C7.62345009,6.8921979 7.67073555,7.00883538 7.73851138,7.19718914 C7.80234676,7.07267075 7.8425394,7.01829247 7.8606655,6.95760946 C8.05138354,6.32319615 8.23816112,5.68799475 8.42730298,5.05200525 C8.44779335,4.98422942 8.47616462,4.91802977 8.49507881,4.85025394 C8.53842382,4.69421191 8.6282662,4.61619089 8.80085814,4.61619089 C9.67091068,4.61619089 9.52669002,4.56732925 9.53141856,5.29079685 C9.53851138,6.19079685 9.53614711,7.09237303 9.53141856,7.99237303 C9.53063047,8.28160245 9.48019264,8.32021891 9.19884413,8.31627846 C8.9371979,8.31154991 8.89858144,8.27923818 8.89542907,7.99788967 C8.88991243,7.39421191 8.89464098,6.78895797 8.89227671,6.18449212 C8.89227671,6.0717951 8.88281961,5.95752189 8.87730298,5.84482487 L8.79218914,5.83773205 Z" id="Fill-54"></path>
                        <path d="M43.2319264,5.83544658 C43.1208056,6.24367776 43.0096848,6.65112084 42.899352,7.05935201 C42.8055692,7.40138354 42.7062697,7.74262697 42.6235201,8.08781086 C42.5817513,8.26119089 42.4769352,8.31478109 42.3161646,8.31556918 C42.1483012,8.31635727 42.0198424,8.28483363 41.9741331,8.08702277 C41.7172154,6.981331 41.4516287,5.87721541 41.1907706,4.77152364 C41.1828897,4.73842382 41.1939229,4.70217163 41.1962872,4.65488616 C41.2404203,4.6430648 41.2845534,4.62178634 41.3286865,4.62099825 C41.817303,4.61075306 41.8559194,4.59971979 41.9394571,5.0843958 C42.0316637,5.62029772 42.1506655,6.15068301 42.2609982,6.68422067 C42.2712434,6.73544658 42.29331,6.78352014 42.3681786,6.83632224 C42.4264974,6.64875657 42.4911208,6.46434326 42.5423468,6.27598949 C42.6637128,5.82992995 42.7890193,5.38623468 42.8922592,4.93623468 C42.942697,4.71556918 43.0396322,4.60681261 43.2760595,4.61469352 C43.5629247,4.62336252 43.5976007,4.63912434 43.6811384,4.94884413 C43.8292995,5.49735552 43.9750963,6.0458669 44.1248336,6.59359019 C44.1461121,6.67161121 44.1823643,6.74411559 44.2682662,6.82528897 C44.2990018,6.7078634 44.3328897,6.59201401 44.3588967,6.47380035 C44.4621366,6.00015762 44.5614361,5.5249387 44.664676,5.05208406 C44.7655517,4.58553415 44.8774606,4.52642732 45.3660771,4.69350263 C45.3511033,4.80383538 45.3447986,4.92126095 45.3180035,5.03316988 C45.0839405,6.03562172 44.8427846,7.03570928 44.6118739,8.03894921 C44.5622242,8.25567426 44.4384939,8.31793345 44.2312259,8.31950963 C44.0089842,8.32108581 43.954606,8.18238179 43.9096848,8.01294221 C43.7402452,7.37222417 43.5700175,6.73229422 43.3966375,6.09157618 C43.3729947,6.00330998 43.3359545,5.91740806 43.3052189,5.82992995 C43.2807881,5.83150613 43.2563573,5.83308231 43.2319264,5.83544658" id="Fill-55"></path>
                        <path d="M51.1647723,6.32335377 C51.1671366,6.33359895 51.1687128,6.34305604 51.1710771,6.35330123 C51.3649475,6.31232049 51.5643345,6.28867776 51.7511121,6.22641856 C51.9449825,6.1617951 52.0773818,5.91906305 52.0450701,5.71573555 C52.0127583,5.50689142 51.9166112,5.31932574 51.6935814,5.27519264 C51.4421804,5.22475482 51.1821103,5.21135727 50.9259807,5.18929072 C50.7273818,5.17116462 50.6533012,5.28070928 50.6588179,5.46827496 C50.6643345,5.65662872 50.6659107,5.84577058 50.6580298,6.03412434 C50.6493608,6.24533275 50.7439317,6.3383275 50.9527758,6.32414186 C51.023704,6.31941331 51.0946322,6.32335377 51.1647723,6.32335377 M52.0513748,6.79778459 C52.261007,7.29349387 52.4659107,7.77974606 52.6708144,8.26284588 C52.6227408,8.28648862 52.6022504,8.30382662 52.580972,8.30619089 C51.9969965,8.367662 51.9662609,8.35190018 51.7298336,7.82230298 C51.6242294,7.58587566 51.5320228,7.34235552 51.4272067,7.10356392 C51.3389405,6.90417688 51.1497986,6.84664623 50.8519002,6.89708406 C50.6241419,6.93491243 50.6635464,7.10435201 50.660394,7.25251313 C50.6548774,7.51258319 50.6651226,7.77344133 50.6556655,8.03351138 C50.6469965,8.29042907 50.5989229,8.32116462 50.2836865,8.31564799 C49.9913047,8.31170753 49.9526883,8.28964098 49.950324,8.03035902 C49.9440193,7.26039405 49.9479597,6.49121716 49.9479597,5.72125219 C49.9479597,5.4375394 49.9487478,5.15382662 49.9495359,4.86932574 C49.9495359,4.73850263 49.985,4.62186515 50.1402539,4.6258056 C50.7187128,4.63683888 51.2987478,4.63132224 51.8732662,4.68333625 C52.313021,4.72274081 52.6251051,4.99305604 52.7047023,5.43911559 C52.7898161,5.91354641 52.7322855,6.3643345 52.2665236,6.65356392 C52.1979597,6.69612084 52.1317601,6.7434063 52.0513748,6.79778459" id="Fill-56"></path>
                        <path d="M15.3744046,5.74694396 C15.3744046,5.87619089 15.3547023,6.00937828 15.3822855,6.13232049 C15.3980473,6.20324869 15.4949825,6.31042907 15.550937,6.3080648 C15.8401664,6.29466725 16.1357005,6.27969352 16.4154729,6.21034151 C16.641655,6.15517513 16.7330736,5.95184764 16.7157356,5.71226795 C16.6991856,5.48845009 16.589641,5.33634851 16.3697636,5.2756655 C16.2452452,5.24098949 16.1191506,5.20788967 15.9914799,5.19370403 C15.4075044,5.1259282 15.3680998,5.16296848 15.3744046,5.74694396 M17.3666988,8.31218039 C17.1216025,8.31218039 16.9434939,8.33188266 16.7740543,8.30351138 C16.6905166,8.29011384 16.5935814,8.19948336 16.5526007,8.11909807 C16.3886778,7.79125219 16.2452452,7.45316112 16.0915674,7.12058669 C15.9985727,6.91804729 15.6423555,6.80140981 15.4689755,6.93144483 C15.4082925,6.97715412 15.3767688,7.09142732 15.3736165,7.17654116 C15.361007,7.46025394 15.3744046,7.74475482 15.3649475,8.02925569 C15.3570665,8.29011384 15.3097811,8.3200613 14.9969089,8.31612084 C14.7045271,8.31296848 14.6619702,8.28853765 14.660394,8.03319615 C14.6540893,6.99055166 14.6572417,5.94869527 14.6580298,4.90605079 C14.6580298,4.76971103 14.668275,4.622338 14.8495359,4.62549037 C15.4398161,4.63809982 16.0324606,4.62785464 16.6180123,4.69247811 C17.1042644,4.7460683 17.3280823,5.12750438 17.4171366,5.57514011 C17.4872767,5.9282049 17.3469965,6.48302102 16.9166988,6.65640105 C16.8544396,6.68240806 16.8047898,6.73757443 16.7299212,6.7935289 C16.9332487,7.27741681 17.1318476,7.75342382 17.3666988,8.31218039" id="Fill-57"></path>
                        <path d="M24.6879072,6.46418564 C24.6879072,6.97329247 24.6926357,7.48318739 24.6871191,7.99229422 C24.6831786,8.28861646 24.6406217,8.31935201 24.3182925,8.31619965 C24.0172417,8.31304729 23.985718,8.28782837 23.9794133,7.99859895 C23.9723205,7.70227671 23.9809895,7.40595447 23.9762609,7.10963222 C23.9715324,6.77311734 23.9541944,6.75656743 23.6058581,6.75183888 C23.3686427,6.74868651 23.1314273,6.74711033 22.895,6.75262697 C22.5821278,6.7589317 22.5600613,6.78099825 22.5553327,7.10490368 C22.5506042,7.41304729 22.5600613,7.72197898 22.5513923,8.0293345 C22.5435114,8.28940455 22.4962259,8.31935201 22.1825657,8.31619965 C21.890972,8.31304729 21.847627,8.28782837 21.8468389,8.03327496 C21.8405342,6.99063047 21.8405342,5.94798599 21.8460508,4.90534151 C21.847627,4.64369527 21.9004291,4.61374781 22.2133012,4.61690018 C22.5048949,4.62084063 22.5427233,4.64527145 22.5513923,4.89982487 C22.5600613,5.18353765 22.5506042,5.46803853 22.5553327,5.7525394 C22.5600613,6.08984238 22.5773993,6.1056042 22.9257356,6.11033275 C23.1621629,6.1142732 23.3993783,6.1150613 23.6365937,6.11033275 C23.9494658,6.10323993 23.9707443,6.08117338 23.9762609,5.75726795 C23.9809895,5.47276708 23.9715324,5.1882662 23.9802014,4.90455342 C23.9880823,4.64369527 24.0353678,4.61295972 24.349028,4.61690018 C24.6406217,4.62084063 24.6816025,4.64448336 24.6855429,4.90140105 C24.6934238,5.42232925 24.6879072,5.94325744 24.6879072,6.46418564" id="Fill-58"></path>
                        <path d="M37.8522592,6.45732925 C37.8522592,5.95925569 37.8483187,5.46118214 37.8530473,4.96310858 C37.8561996,4.64629597 37.8814186,4.62107706 38.2005954,4.61871278 C38.8050613,4.61398424 39.4103152,4.61398424 40.0147811,4.61871278 C40.3063748,4.62186515 40.3449912,4.66757443 40.3410508,4.94971103 C40.3371103,5.21293345 40.3055867,5.25076182 40.0258144,5.25549037 C39.6467426,5.2617951 39.2668827,5.25312609 38.8878109,5.25864273 C38.5812434,5.26415937 38.5607531,5.29568301 38.5631173,5.66293345 C38.5654816,6.00338879 38.5851839,6.0293958 38.8815061,6.03885289 C39.070648,6.04515762 39.2605779,6.04515762 39.4505079,6.04121716 C39.6948161,6.03648862 39.7011208,6.19883538 39.7019089,6.37694396 C39.7034851,6.55268827 39.6672329,6.68272329 39.4520841,6.67878284 C39.2503327,6.67484238 39.0493695,6.68508757 38.8476182,6.67957093 C38.6576883,6.67484238 38.5568126,6.74813485 38.5631173,6.94909807 C38.568634,7.1145972 38.5662697,7.28088441 38.5646935,7.44717163 C38.5623292,7.65601576 38.6671454,7.74743433 38.8712609,7.74664623 C39.2629422,7.74507005 39.6538354,7.74270578 40.0455166,7.75058669 C40.3047986,7.75531524 40.3883363,7.85382662 40.3300175,8.10838004 C40.3118914,8.18640105 40.2054991,8.30225044 40.1377233,8.30382662 C39.4505079,8.31801226 38.7625044,8.31249562 38.075289,8.31249562 C37.8759019,8.31249562 37.8522592,8.17852014 37.8522592,8.02247811 C37.8530473,7.50076182 37.8522592,6.97904553 37.8522592,6.45732925" id="Fill-59"></path>
                        <path d="M12.5229335,6.86516637 C12.388958,6.37103327 12.2975394,5.93443082 12.060324,5.53644483 C11.9287128,5.98723292 11.6812522,6.39152364 11.6631261,6.86516637 L12.5229335,6.86516637 Z M13.652268,8.30737303 C13.4473643,8.30737303 13.2700438,8.33574431 13.1100613,8.29555166 C13.0233713,8.2750613 12.9240718,8.14660245 12.9020053,8.05045534 C12.7412347,7.3395972 12.6797636,7.47751313 12.1131261,7.4633275 C12.0658406,7.46175131 12.0185552,7.4633275 11.9712697,7.4633275 C11.3723205,7.4625394 11.4503415,7.45308231 11.2785377,7.95509632 C11.1445622,8.34677758 11.0775744,8.37514886 10.5046322,8.26954466 C10.5188179,8.18364273 10.5219702,8.09301226 10.5495534,8.00947461 C10.8884326,6.98732049 11.2288879,5.96516637 11.5724956,4.94458844 C11.6836165,4.61674256 11.6914974,4.61595447 12.0981524,4.61674256 C12.4811646,4.61753065 12.4866813,4.61595447 12.5907093,4.93355517 C12.9232837,5.94467601 13.2519177,6.95658494 13.5797636,7.96928196 C13.6073468,8.05676007 13.6191681,8.14896673 13.652268,8.30737303 L13.652268,8.30737303 Z" id="Fill-60"></path>
                        <path d="M47.4590893,5.54070053 L47.3448161,5.53833625 C47.2171454,5.9662697 47.0894746,6.39420315 46.9484063,6.8662697 L47.8618039,6.8662697 C47.7207356,6.40129597 47.5899124,5.97099825 47.4590893,5.54070053 M48.9540981,8.31084063 C48.8051489,8.31084063 48.6357093,8.34236427 48.4875482,8.29901926 C48.3874606,8.26985989 48.2826445,8.15085814 48.2400876,8.04683012 C48.001296,7.46521891 48.0076007,7.46285464 47.396042,7.46285464 C47.3723993,7.46285464 47.3487566,7.46206655 47.3251138,7.46285464 C46.8120665,7.47704028 46.7458669,7.33360771 46.5914011,8.02397548 C46.547268,8.22257443 46.4487566,8.34394046 46.2249387,8.31714536 C46.1106655,8.30374781 45.9948161,8.30138354 45.8245884,8.29035026 C45.9136427,7.96408056 45.9806305,7.67012259 46.0736252,7.38483363 C46.3439405,6.55182137 46.6292294,5.72353765 46.8987566,4.89131349 C46.96338,4.68956217 47.0697723,4.59262697 47.283345,4.61548161 C47.3771278,4.62651489 47.473275,4.62099825 47.5678459,4.61784588 C47.716007,4.61311734 47.8192469,4.67380035 47.8665324,4.81723292 C48.2369352,5.94105079 48.607338,7.06486865 48.9761646,8.18868651 C48.9824694,8.20838879 48.9690718,8.23360771 48.9540981,8.31084063" id="Fill-61"></path>
                        <path d="M27.3746673,5.52604203 C27.3439317,5.52525394 27.3124081,5.52446585 27.2816725,5.52288967 C27.1610946,5.8995972 27.0373643,6.27394046 26.9215149,6.65143608 C26.8781699,6.79250438 26.9412172,6.88392294 27.0933187,6.8878634 C27.3100438,6.89259194 27.5275569,6.88865149 27.7923555,6.88865149 C27.6402539,6.3937303 27.5070665,5.96028021 27.3746673,5.52604203 M28.9004116,8.29460595 C28.7751051,8.30248687 28.6718651,8.31588441 28.5686252,8.31509632 C28.2510245,8.31430823 28.2076795,8.27963222 28.1217776,7.97779335 C28.1091681,7.93287215 28.1052277,7.8847986 28.0934063,7.83987741 C28.0004116,7.49075306 27.9704641,7.46868651 27.606366,7.46316988 C27.5236165,7.4615937 27.4400788,7.45922942 27.3581173,7.46316988 C27.1461208,7.47420315 26.8947198,7.42218914 26.7371016,7.52070053 C26.6015499,7.60660245 26.5574168,7.85957968 26.5022504,8.04635727 C26.4407793,8.25598949 26.3131086,8.33164623 26.108993,8.3166725 C25.9947198,8.3080035 25.8788704,8.30485114 25.728345,8.29854641 C25.7638091,8.16378284 25.7842995,8.06290718 25.8166112,7.9643958 C26.1444571,6.95248687 26.4793958,5.94294221 26.7985727,4.92788091 C26.8710771,4.69539405 26.9940193,4.6110683 27.2328109,4.61264448 C27.7293082,4.61579685 27.7340368,4.60318739 27.8853503,5.06500876 C28.2100438,6.05327496 28.5300088,7.04232925 28.8491856,8.03217163 C28.8736165,8.10782837 28.8807093,8.18900175 28.9004116,8.29460595" id="Fill-62"></path>
                        <path d="M33.5404553,5.18432574 C33.1511384,5.4971979 33.1267075,5.50192644 32.7342382,5.26392294 C32.4867776,5.11339755 32.2345884,5.07399299 31.954028,5.17171629 C31.7861646,5.23161121 31.6978984,5.34036778 31.67662,5.50350263 C31.6545534,5.67688266 31.7420315,5.80691769 31.8988616,5.86996497 C32.2487741,6.00945709 32.6065674,6.13003503 32.957268,6.26873905 C33.4372154,6.45709282 33.6468476,6.75341506 33.6539405,7.23021016 C33.6618214,7.81103327 33.4151489,8.17276708 32.8524518,8.32723292 C32.4371278,8.44229422 32.0115587,8.43677758 31.5985989,8.28073555 C31.2723292,8.15700525 31.0508757,7.92767075 30.8877408,7.57539405 C31.071366,7.49500876 31.2392294,7.4209282 31.4070928,7.34763573 C31.4315236,7.32714536 31.4551664,7.3058669 31.4795972,7.28537653 C31.5355517,7.37443082 31.5796848,7.47451839 31.6490368,7.5525394 C31.9209282,7.85359019 32.273993,7.8614711 32.6317863,7.78187391 C32.8288091,7.73774081 32.9738179,7.5880035 32.9864273,7.38231173 C33.0014011,7.16085814 32.8556042,7.00008757 32.66331,6.91497373 C32.3937828,6.79754816 32.1108581,6.71085814 31.8350263,6.60683012 C31.7136602,6.56033275 31.6001751,6.49492119 31.4788091,6.44842382 C30.9050788,6.22381786 30.8262697,5.35849387 31.2281961,4.9415937 C31.7483363,4.4033275 32.8855517,4.40647986 33.3883538,4.96050788 C33.4490368,5.02749562 33.4915937,5.11024518 33.5404553,5.18432574" id="Fill-63"></path>
                        <path d="M35.2905692,6.78596322 C35.2905692,6.46678634 35.2905692,6.14603327 35.2905692,5.8260683 C35.2897811,5.23421191 35.3307618,5.25627846 34.7381173,5.25706655 C34.6435464,5.25785464 34.5489755,5.25470228 34.4536165,5.25470228 C34.2290105,5.25470228 34.2234939,5.09866025 34.2234939,4.93552539 C34.2227058,4.77081436 34.232951,4.61950088 34.4559807,4.61950088 C35.2259457,4.62028897 35.9966988,4.62028897 36.7666637,4.62028897 C36.9912697,4.62028897 36.9975744,4.77396673 36.9975744,4.93788967 C36.9983625,5.1026007 36.9881173,5.25549037 36.7650876,5.25470228 C36.6579072,5.25391419 36.5515149,5.25706655 36.4451226,5.25785464 C36.0053678,5.26021891 36.0030035,5.26021891 36.0022154,5.68578809 C36.0006392,6.34936077 36.0014273,7.01293345 36.0014273,7.67729422 C36.0014273,7.75925569 36.0022154,7.84279335 36.0014273,7.92554291 C35.9966988,8.29594571 35.9572942,8.3321979 35.59162,8.31564799 C35.3244571,8.30382662 35.2960858,8.28018389 35.2921454,7.99410683 C35.2866287,7.59139229 35.2905692,7.18946585 35.2905692,6.78596322" id="Fill-64"></path>
                        <path d="M19.139352,6.7874606 C19.139352,6.40917688 19.1409282,6.02931699 19.1385639,5.65103327 C19.1354116,5.27038529 19.1243783,5.2609282 18.7303327,5.25777583 C18.5884764,5.25619965 18.44662,5.25462347 18.3039755,5.25462347 C18.0809457,5.25541156 18.0722767,5.1017338 18.0722767,4.93702277 C18.0722767,4.77309982 18.0793695,4.62021016 18.3031874,4.62021016 L20.6138704,4.62021016 C20.8376883,4.61942207 20.8471454,4.77152364 20.8463573,4.93623468 C20.8463573,5.10015762 20.8392644,5.25541156 20.6154466,5.25462347 C20.5319089,5.25462347 20.4491594,5.25698774 20.3664098,5.25698774 C19.728056,5.25777583 19.7800701,5.21837128 19.779282,5.86224168 C19.7784939,6.57388792 19.7824343,7.28474606 19.7769177,7.99481611 C19.7753415,8.28010508 19.7383012,8.31005254 19.4774431,8.31556918 C19.1945184,8.32187391 19.1456567,8.28168126 19.1409282,7.99639229 C19.1354116,7.59288967 19.139352,7.19096322 19.139352,6.7874606" id="Fill-65"></path>
                        <path d="M54.5722417,6.7874606 C54.5722417,6.41942207 54.5730298,6.05217163 54.5722417,5.68570928 C54.5698774,5.2609282 54.5683012,5.26014011 54.1277583,5.25777583 C53.9977233,5.25698774 53.8669002,5.25462347 53.7368651,5.25462347 C53.5130473,5.25541156 53.5051664,5.10094571 53.5051664,4.93702277 C53.5051664,4.77231173 53.5130473,4.61942207 53.7368651,4.62021016 L56.0475482,4.62021016 C56.271366,4.61942207 56.280035,4.77231173 56.2792469,4.93702277 C56.2792469,5.10094571 56.271366,5.25541156 56.0475482,5.25462347 C55.9411559,5.25462347 55.8347636,5.25698774 55.7275832,5.25777583 C55.2129597,5.25856392 55.2129597,5.25856392 55.2121716,5.75663748 C55.2121716,6.50295972 55.215324,7.24928196 55.2105954,7.9956042 C55.2082312,8.28168126 55.1570053,8.31399299 54.8740806,8.31793345 C54.6691769,8.32108581 54.566725,8.25015762 54.5706655,8.0310683 C54.5785464,7.6165324 54.5730298,7.2019965 54.5730298,6.7874606 L54.5722417,6.7874606 Z" id="Fill-66"></path>
                    </g>
                </g>
            </g>
        </g>
    </g>
</svg>