<svg width="74px" height="48px" viewBox="0 0 74 48" version="1.1" xmlns="http://www.w3.org/2000/svg" xmlns:xlink="http://www.w3.org/1999/xlink">
<!-- Generator: Sketch 46.2 (44496) - http://www.bohemiancoding.com/sketch -->
<desc>Created with Sketch.</desc>
<defs>
<filter x="-1.7%" y="-39.0%" width="103.3%" height="175.6%" filterUnits="objectBoundingBox" id="filter-1">
<feOffset dx="0" dy="0" in="SourceAlpha" result="shadowOffsetOuter1"></feOffset>
<feGaussianBlur stdDeviation="5" in="shadowOffsetOuter1" result="shadowBlurOuter1"></feGaussianBlur>
<feColorMatrix values="0 0 0 0 0   0 0 0 0 0.0941176471   0 0 0 0 0.203921569  0 0 0 1 0" type="matrix" in="shadowBlurOuter1" result="shadowMatrixOuter1"></feColorMatrix>
<feMerge>
<feMergeNode in="shadowMatrixOuter1"></feMergeNode>
<feMergeNode in="SourceGraphic"></feMergeNode>
</feMerge>
</filter>
</defs>
<g id="Homepage-(Masami)" stroke="none" stroke-width="1" fill="none" fill-rule="evenodd">
<g id="HP-V3" transform="translate(-975.000000, -623.000000)" fill="#FFFFFF">
<g id="Section:-Header" transform="translate(-102.000000, -5.000000)">
<g id="Page-1" filter="url(#filter-1)" transform="translate(352.000000, 634.000000)">
<g id="wsj" transform="translate(733.000000, 3.000000)">
<path d="M14.7921891,10.1714448 C14.6314186,10.7711821 14.4848336,11.3015674 14.3469177,11.8335289 C13.2459545,16.0647898 12.1473555,20.2968389 11.0471804,24.5280998 C10.6791419,25.9450876 10.3150438,27.3620753 9.93676007,28.7759107 C9.89420315,28.9374694 9.93518389,29.1754729 9.62073555,29.1794133 C9.28816112,29.1833538 9.32914186,28.9303765 9.28658494,28.7601489 C8.49534151,25.6645271 7.71434326,22.5665412 6.92782837,19.4693433 C5.58886165,14.1899212 4.23255692,8.91443958 2.92038529,3.62792469 C2.61775832,2.40874781 2.00619965,1.61198774 0.71530648,1.4567338 C0.41267951,1.42048161 0.297618214,1.28098949 0.397705779,0.960236427 L8.63089317,0.960236427 L8.63089317,1.35585814 C8.39683012,1.41496497 8.14227671,1.4740718 7.88929947,1.54105954 C6.71425569,1.84999124 6.37931699,2.3567338 6.65593695,3.55305604 C6.99402802,5.01890543 7.37467601,6.47529772 7.75532399,7.93011384 C8.83264448,12.051042 9.91942207,16.169606 11.0030473,20.2897461 C11.0322067,20.3961384 11.0668827,20.4993783 11.1598774,20.6120753 C11.2828196,20.1478897 11.4081261,19.683704 11.5294921,19.2187303 C12.454711,15.6825657 13.3799299,12.1464011 14.3012084,8.60944834 C14.3287916,8.50384413 14.349282,8.38169002 14.3216988,8.27923818 C13.8598774,6.50603327 13.3917513,4.73361646 12.9204729,2.96277583 C12.8731874,2.78466725 12.7975306,2.61443958 12.7344834,2.44184764 C12.5035727,1.81610333 12.047268,1.49298599 11.3907881,1.43230298 C11.2489317,1.41969352 11.1102277,1.3858056 10.9589142,1.35901051 L10.9589142,0.958660245 L19.204711,0.958660245 L19.204711,1.35664623 C18.9005079,1.41654116 18.5836953,1.48510508 18.2645184,1.53948336 C17.1887741,1.72232049 16.8443783,2.427662 17.0350963,3.43484238 C17.2526095,4.5799387 17.5410508,5.71400175 17.8294921,6.84412434 C18.9462172,11.2400963 20.0755517,15.633704 21.2001576,20.0280998 C21.2482312,20.2156655 21.298669,20.4024431 21.3672329,20.6640893 C21.4255517,20.4962259 21.4696848,20.3921979 21.497268,20.2834413 C22.8165324,15.1356305 24.1381611,9.98860771 25.444028,4.8360683 C25.5709107,4.33405429 25.6308056,3.80524518 25.6481436,3.28668126 C25.6788792,2.38668126 25.2320315,1.83974606 24.361979,1.62144483 C23.9963047,1.53002627 23.6274781,1.45200525 23.2570753,1.36610333 L23.2570753,0.955507881 L29.2434151,0.955507881 C29.3387741,1.24079685 29.2812434,1.40787215 28.9565499,1.45121716 C27.6885114,1.61829247 27.0241506,2.43711909 26.7065499,3.59640105 C26.3046235,5.06697898 25.9105779,6.54149737 25.5338704,8.01916813 C24.422662,12.3741594 23.3216988,16.732303 22.216007,21.0896585 C21.5532224,23.6998161 20.8841331,26.3091856 20.2292294,28.9209194 C20.182732,29.1069089 20.1204729,29.1746848 19.9266025,29.1754729 C19.7280035,29.177049 19.697268,29.0651401 19.6578634,28.9146147 C18.4237128,24.1364186 17.187986,19.3574343 15.9522592,14.5800263 C15.5999825,13.2221454 15.2500701,11.8642644 14.8977933,10.5071716 C14.8749387,10.4181173 14.842627,10.3322154 14.7921891,10.1714448" id="Fill-67"></path>
<path d="M40.6414186,0.945262697 L41.0614711,0.945262697 L41.0614711,10.2352802 C40.6028021,10.320394 40.6122592,10.3172417 40.5523643,9.93974606 C40.264711,8.12950088 39.8375657,6.36023643 38.9990368,4.71549037 C38.464711,3.66732925 37.7956217,2.72634851 36.7813485,2.08011384 C35.5881786,1.32039405 33.8725044,1.34561296 32.7951839,2.14394921 C32.1197898,2.64281086 31.7958844,3.353669 31.6500876,4.15436953 C31.3301226,5.91338879 31.939317,7.40524518 33.0016637,8.75997373 C33.895359,9.89876532 34.9671629,10.8633888 36.0389667,11.8264361 C37.5095447,13.1464886 39.0084939,14.4381699 40.2402802,15.9993783 C41.2915937,17.3312522 42.0985989,18.7884326 42.3704904,20.4812522 C42.7716287,22.9795009 42.3681261,25.2949124 40.6311734,27.2454378 C39.6830998,28.3101489 38.4686515,28.9280123 37.0753065,29.1880823 C35.1689142,29.5435114 33.3807356,29.245613 31.7288967,28.1958757 C31.334063,27.9460508 30.9337128,27.6386953 30.4285464,27.7175044 C30.2070928,27.7513923 29.9375657,27.861725 29.8083187,28.0295884 C29.6010508,28.2983275 29.464711,28.6340543 29.3512259,28.9595359 C29.273993,29.1786252 29.1329247,29.2038441 28.9768827,29.1557706 C28.9059545,29.133704 28.8366025,28.9784501 28.8366025,28.8830911 C28.8287215,25.957697 28.8358144,23.032303 28.8232049,20.1061208 C28.8216287,19.7278371 29.0430823,19.8247723 29.2897548,19.8271366 C29.3543783,20.2471891 29.4111208,20.6688179 29.4852014,21.0888704 C29.83669,23.075648 30.4931699,24.9386953 31.7683012,26.5361559 C32.5083187,27.4613748 33.3996497,28.2013923 34.569965,28.5087478 C36.7364273,29.0761734 38.6830123,27.9184676 39.312697,25.6960508 C39.9345009,23.5043695 39.4348511,21.5420228 38.0761821,19.753056 C36.984676,18.3179422 35.6535902,17.1200438 34.3311734,15.9119002 C32.926007,14.6273117 31.4940455,13.3687303 30.3426445,11.8358932 C29.5577058,10.7900963 28.9382662,9.66391419 28.719965,8.35489492 C28.3338004,6.04342382 29.0706655,3.11645359 31.3655867,1.69946585 C32.6761821,0.890884413 34.1105079,0.66706655 35.6252189,0.795525394 C36.664711,0.883003503 37.5899299,1.25971103 38.4741681,1.78852014 C38.7783713,1.97056918 39.1164623,2.10848511 39.4553415,2.21251313 C39.8454466,2.33309107 40.1654116,2.16601576 40.350613,1.79876532 C40.4191769,1.66242557 40.4648862,1.51426445 40.5145359,1.3684676 C40.5602452,1.23449212 40.5964974,1.09578809 40.6414186,0.945262697" id="Fill-68"></path>
<path d="M49.2234939,1.36090193 L49.2234939,0.951882662 L57.8767338,0.951882662 C57.9728809,1.35065674 57.9728809,1.34829247 57.5922329,1.44128722 C57.332951,1.50354641 57.0728809,1.56265324 56.8191156,1.64146235 C56.0704291,1.87552539 55.697662,2.33813485 55.6385552,3.11992119 C55.6062434,3.55100701 55.5841769,3.983669 55.5841769,4.41475482 C55.5810245,10.4735989 55.5810245,16.5308669 55.5826007,22.589711 C55.5826007,23.9334063 55.3579947,25.2282399 54.7038792,26.4182574 C53.7715674,28.1134413 52.2938967,29.0008319 50.4040543,29.253021 C49.0918827,29.4279772 47.8128109,29.3318301 46.6306743,28.6871716 C45.0544921,27.8273643 44.1505517,26.4891856 43.8881173,24.7120403 C43.7596585,23.8427758 43.8392557,23.0105517 44.2632487,22.2303415 C44.8243695,21.1979422 45.9552802,20.6730736 46.9758581,20.9504816 C47.969641,21.2200088 48.4125482,21.9679072 48.393634,22.927014 C48.3786602,23.7261384 48.0374168,24.3715849 47.3675394,24.8294658 C47.0530911,25.0446147 46.7307618,25.2495184 46.4344396,25.4859457 C45.9237566,25.894965 45.8079072,26.3749124 46.0939842,26.9644046 C46.5408319,27.8833187 47.3415324,28.327014 48.3037916,28.5098511 C49.0327758,28.6493433 49.7428459,28.5673818 50.3827758,28.1701839 C51.1259457,27.7075744 51.4734939,26.9659807 51.6058932,26.1487303 C51.7367163,25.340937 51.8163135,24.5158056 51.8178897,23.6985552 C51.8344396,17.1455779 51.8289229,10.5926007 51.8241944,4.03962347 C51.8241944,3.70310858 51.7910946,3.36344133 51.7477496,3.02771454 C51.6460858,2.23883538 51.1771716,1.78331874 50.4127233,1.61624343 C50.0155254,1.52955342 49.6175394,1.44522767 49.2234939,1.36090193" id="Fill-69"></path>
</g>
</g>
</g>
</g>
</g>
</svg>